<?xml version="1.0" encoding="UTF-8"?>
<svg xmlns="http://www.w3.org/2000/svg" xmlns:xlink="http://www.w3.org/1999/xlink" xmlns:inkscape="http://www.inkscape.org/namespaces/inkscape" xmlns:sodipodi="http://sodipodi.sourceforge.net/DTD/sodipodi-0.0.dtd" version="1.1" width="60.96mm" height="128.5mm" viewBox="0 0 60.96 128.5">
  <g inkscape:label="panel" inkscape:groupmode="layer" id="panel">
    <rect x="0" y="0" width="60.96" height="128.5" fill="#3d3d3d"/>
    <rect class="zone" x="1.50" y="35.15" width="57.96" height="46.00" rx="2.00" fill="#ffffff" fill-opacity="0.14"/>
    <circle cx="7.5" cy="3.0" r="1.6" fill="#333333"/>
    <circle cx="53.46" cy="3.0" r="1.6" fill="#333333"/>
    <circle cx="7.5" cy="125.5" r="1.6" fill="#333333"/>
    <circle cx="53.46" cy="125.5" r="1.6" fill="#333333"/>
    <rect x="9.72" y="46.050000000000004" width="0.3" height="11.950000000000003" fill="#808080"/>
    <rect x="23.46" y="46.050000000000004" width="0.3" height="11.950000000000003" fill="#808080"/>
    <rect x="37.2" y="46.050000000000004" width="0.3" height="11.950000000000003" fill="#808080"/>
    <rect x="50.940000000000005" y="46.050000000000004" width="0.3" height="11.950000000000003" fill="#808080"/>
    <rect x="12.01" y="92.94999999999999" width="0.3" height="11.949999999999989" fill="#808080"/>
    <rect x="30.330000000000002" y="92.94999999999999" width="0.3" height="11.949999999999989" fill="#808080"/>
    <rect x="48.65" y="92.94999999999999" width="0.3" height="11.949999999999989" fill="#808080"/>
    <path fill="#ffffff" d="M 28.4755 2.6432 L 28.4755 3.2364 L 28.9868 3.2364 L 29.4982 3.2364 L 29.4982 2.6432 L 29.4982 2.05 L 28.9868 2.05 L 28.4755 2.05 L 28.4755 2.6432 Z"/>
    <path fill="#ffffff" d="M 30.3164 2.6432 L 30.3164 3.2364 L 30.8277 3.2364 L 31.3391 3.2364 L 31.3391 2.6432 L 31.3391 2.05 L 30.8277 2.05 L 30.3164 2.05 L 30.3164 2.6432 Z"/>
    <path fill="#ffffff" d="M 22.9936 5.2614 L 22.9936 8.35 L 25.1414 8.35 L 27.2891 8.35 L 27.2891 7.7773 L 27.2891 7.2045 L 25.755 7.2045 L 24.2209 7.2045 L 24.2209 4.6886 L 24.2209 2.1727 L 23.6073 2.1727 L 22.9936 2.1727 L 22.9936 5.2614 Z"/>
    <path fill="#ffffff" d="M 33.0982 5.2614 L 33.0982 8.35 L 33.7118 8.35 L 34.3255 8.35 L 34.3255 7.225 L 34.3255 6.1 L 35.7286 6.1 L 37.1277 6.1 L 37.5491 5.6786 L 37.9664 5.2614 L 37.9664 4.1364 L 37.9664 3.0114 L 37.5491 2.5941 L 37.1277 2.1727 L 35.115 2.1727 L 33.0982 2.1727 L 33.0982 5.2614 Z M 36.7309 4.1241 L 36.7391 4.9545 L 35.5323 4.9545 L 34.3255 4.9545 L 34.3255 4.1445 L 34.3255 3.3305 L 34.3541 3.3059 L 34.3827 3.2773 L 35.5486 3.2855 L 36.7186 3.2977 L 36.7309 4.1241 Z"/>
    <path fill="#ffffff" d="M 28.1973 4.1895 L 27.8209 4.5659 L 27.8209 6.0795 L 27.8209 7.5932 L 28.2014 7.9736 L 28.5777 8.35 L 29.9073 8.35 L 31.2368 8.35 L 31.5927 7.9941 L 31.9527 7.6341 L 31.9527 6.0795 L 31.9527 4.525 L 31.5927 4.165 L 31.2368 3.8091 L 29.9073 3.8091 L 28.5777 3.8091 L 28.1973 4.1895 Z M 30.8073 6.0591 L 30.8073 7.2864 L 29.9073 7.2864 L 29.0073 7.2864 L 29.0073 6.0591 L 29.0073 4.8318 L 29.9073 4.8318 L 30.8073 4.8318 L 30.8073 6.0591 Z"/>
    <path fill="#ffffff" d="M8.317265625000001 37.4251953125 8.040410156250001 37.5892578125Q7.962773437500001 37.4544921875 7.892460937500001 37.4134765625Q7.819218750000001 37.3666015625 7.703496093750001 37.3666015625Q7.561406250000001 37.3666015625 7.467656250000001 37.44716796875Q7.373906250000001 37.52626953125 7.373906250000001 37.64638671875Q7.373906250000001 37.8119140625 7.620000000000001 37.91298828125L7.845585937500001 38.0052734375Q8.120976562500001 38.1166015625 8.248417968750001 38.277001953125Q8.375859375000001 38.43740234375 8.375859375000001 38.6703125Q8.375859375000001 38.98232421875 8.167851562500001 39.1859375Q7.958378906250001 39.391015625 7.647832031250001 39.391015625Q7.353398437500001 39.391015625 7.161503906250001 39.21669921875Q6.972539062500001 39.0423828125 6.925664062500001 38.7259765625L7.271367187500001 38.6498046875Q7.294804687500001 38.8490234375 7.353398437500001 38.9251953125Q7.458867187500001 39.0716796875 7.661015625000001 39.0716796875Q7.820683593750001 39.0716796875 7.926152343750001 38.96474609375Q8.031621093750001 38.8578125 8.031621093750001 38.69375Q8.031621093750001 38.62783203125 8.013310546875001 38.572900390625Q7.995000000000001 38.51796875 7.956181640625001 38.471826171875Q7.917363281250001 38.42568359375 7.855839843750001 38.385400390625Q7.794316406250001 38.3451171875 7.709355468750001 38.30849609375L7.491093750000001 38.21767578125Q7.026738281250001 38.02138671875 7.026738281250001 37.64345703125Q7.026738281250001 37.38857421875 7.221562500000001 37.2171875Q7.416386718750001 37.0443359375 7.706425781250001 37.0443359375Q8.097539062500001 37.0443359375 8.317265625000001 37.4251953125Z M9.128789062500001 37.08828125V39.35H8.787480468750001V37.08828125Z M10.063359375000001 39.02919921875H11.148808593750001V39.35H9.502324218750001L10.612675781250001 37.40908203125H9.683964843750001V37.08828125H11.173710937500001Z M12.795292968750001 37.40908203125H11.888554687500001V37.9525390625H12.768925781250001V38.27333984375H11.888554687500001V39.02919921875H12.795292968750001V39.35H11.547246093750001V37.08828125H12.795292968750001Z"/>
    <path fill="#ffffff" d="M21.19740234375 38.43154296875V39.35H20.85609375V37.08828125H21.2428125Q21.5269921875 37.08828125 21.67201171875 37.12783203125Q21.81849609375 37.1673828125 21.92982421875 37.27724609375Q22.1246484375 37.46767578125 22.1246484375 37.75771484375Q22.1246484375 38.06826171875 21.916640625 38.24990234375Q21.7086328125 38.43154296875 21.35560546875 38.43154296875ZM21.19740234375 38.11513671875H21.32484375Q21.79505859375 38.11513671875 21.79505859375 37.7533203125Q21.79505859375 37.40322265625 21.3101953125 37.40322265625H21.19740234375Z M22.36341796875 38.20888671875Q22.36341796875 37.73134765625 22.713515625 37.38857421875Q23.0621484375 37.04580078125 23.55140625 37.04580078125Q24.0348046875 37.04580078125 24.3805078125 37.39150390625Q24.72767578125 37.73720703125 24.72767578125 38.2220703125Q24.72767578125 38.70986328125 24.37904296875 39.04970703125Q24.0289453125 39.391015625 23.533828125 39.391015625Q23.09583984375 39.391015625 22.74720703125 39.08779296875Q22.36341796875 38.75234375 22.36341796875 38.20888671875ZM22.70765625 38.21328125Q22.70765625 38.58828125 22.959609375 38.82998046875Q23.21009765625 39.0716796875 23.53822265625 39.0716796875Q23.8941796875 39.0716796875 24.13880859375 38.8255859375Q24.3834375 38.5765625 24.3834375 38.219140625Q24.3834375 37.85732421875 24.14173828125 37.6126953125Q23.90150390625 37.3666015625 23.54701171875 37.3666015625Q23.193984375 37.3666015625 22.9508203125 37.6126953125Q22.70765625 37.855859375 22.70765625 38.21328125Z M26.43568359375 37.4251953125 26.158828125 37.5892578125Q26.08119140625 37.4544921875 26.01087890625 37.4134765625Q25.93763671875 37.3666015625 25.8219140625 37.3666015625Q25.67982421875 37.3666015625 25.58607421875 37.44716796875Q25.49232421875 37.52626953125 25.49232421875 37.64638671875Q25.49232421875 37.8119140625 25.73841796875 37.91298828125L25.96400390625 38.0052734375Q26.23939453125 38.1166015625 26.3668359375 38.277001953125Q26.49427734375 38.43740234375 26.49427734375 38.6703125Q26.49427734375 38.98232421875 26.28626953125 39.1859375Q26.076796875 39.391015625 25.76625 39.391015625Q25.47181640625 39.391015625 25.279921875 39.21669921875Q25.09095703125 39.0423828125 25.04408203125 38.7259765625L25.38978515625 38.6498046875Q25.41322265625 38.8490234375 25.47181640625 38.9251953125Q25.57728515625 39.0716796875 25.77943359375 39.0716796875Q25.9391015625 39.0716796875 26.0445703125 38.96474609375Q26.1500390625 38.8578125 26.1500390625 38.69375Q26.1500390625 38.62783203125 26.131728515625 38.572900390625Q26.11341796875 38.51796875 26.074599609375 38.471826171875Q26.03578125 38.42568359375 25.9742578125 38.385400390625Q25.912734375 38.3451171875 25.8277734375 38.30849609375L25.60951171875 38.21767578125Q25.14515625 38.02138671875 25.14515625 37.64345703125Q25.14515625 37.38857421875 25.33998046875 37.2171875Q25.5348046875 37.0443359375 25.82484375 37.0443359375Q26.21595703125 37.0443359375 26.43568359375 37.4251953125Z"/>
    <path fill="#ffffff" d="M34.429833984375 37.4251953125 34.152978515625 37.5892578125Q34.075341796875 37.4544921875 34.005029296875 37.4134765625Q33.931787109375 37.3666015625 33.816064453125 37.3666015625Q33.673974609375 37.3666015625 33.580224609375 37.44716796875Q33.486474609375 37.52626953125 33.486474609375 37.64638671875Q33.486474609375 37.8119140625 33.732568359375 37.91298828125L33.958154296875 38.0052734375Q34.233544921875 38.1166015625 34.360986328125 38.277001953125Q34.488427734375 38.43740234375 34.488427734375 38.6703125Q34.488427734375 38.98232421875 34.280419921875 39.1859375Q34.070947265625 39.391015625 33.760400390625 39.391015625Q33.465966796875 39.391015625 33.274072265625 39.21669921875Q33.085107421875 39.0423828125 33.038232421875 38.7259765625L33.383935546875 38.6498046875Q33.407373046875 38.8490234375 33.465966796875 38.9251953125Q33.571435546875 39.0716796875 33.773583984375 39.0716796875Q33.933251953125 39.0716796875 34.038720703125 38.96474609375Q34.144189453125 38.8578125 34.144189453125 38.69375Q34.144189453125 38.62783203125 34.12587890625 38.572900390625Q34.107568359375 38.51796875 34.06875 38.471826171875Q34.029931640625 38.42568359375 33.968408203125 38.385400390625Q33.906884765625 38.3451171875 33.821923828125 38.30849609375L33.603662109375 38.21767578125Q33.139306640625 38.02138671875 33.139306640625 37.64345703125Q33.139306640625 37.38857421875 33.334130859375 37.2171875Q33.528955078125 37.0443359375 33.818994140625 37.0443359375Q34.210107421875 37.0443359375 34.429833984375 37.4251953125Z M35.241357421875 38.43154296875V39.35H34.900048828125V37.08828125H35.286767578125Q35.570947265625 37.08828125 35.715966796875 37.12783203125Q35.862451171875 37.1673828125 35.973779296875 37.27724609375Q36.168603515625 37.46767578125 36.168603515625 37.75771484375Q36.168603515625 38.06826171875 35.960595703125 38.24990234375Q35.752587890625 38.43154296875 35.399560546875 38.43154296875ZM35.241357421875 38.11513671875H35.368798828125Q35.839013671875 38.11513671875 35.839013671875 37.7533203125Q35.839013671875 37.40322265625 35.354150390625 37.40322265625H35.241357421875Z M37.768212890625 37.40908203125H36.861474609375V37.9525390625H37.741845703125V38.27333984375H36.861474609375V39.02919921875H37.768212890625V39.35H36.520166015625V37.08828125H37.768212890625Z M39.464501953125 37.40908203125H38.557763671875V37.9525390625H39.438134765625V38.27333984375H38.557763671875V39.02919921875H39.464501953125V39.35H38.216455078125V37.08828125H39.464501953125Z M39.912744140625 39.35V37.08828125H40.387353515625Q40.728662109375 37.08828125 40.926416015625 37.1556640625Q41.138818359375 37.22158203125 41.311669921875 37.37978515625Q41.661767578125 37.69912109375 41.661767578125 38.219140625Q41.661767578125 38.740625 41.297021484375 39.062890625Q41.113916015625 39.2240234375 40.913232421875 39.28701171875Q40.725732421875 39.35 40.381494140625 39.35ZM40.254052734375 39.02919921875H40.407861328125Q40.637841796875 39.02919921875 40.790185546875 38.980859375Q40.942529296875 38.92958984375 41.065576171875 38.81826171875Q41.317529296875 38.58828125 41.317529296875 38.219140625Q41.317529296875 37.8470703125 41.068505859375 37.615625Q40.844384765625 37.40908203125 40.407861328125 37.40908203125H40.254052734375Z"/>
    <path fill="#ffffff" d="M47.793369140625 37.08828125V38.55166015625Q47.793369140625 38.8138671875 47.756748046875 38.9427734375Q47.720126953125 39.0892578125 47.632236328125 39.19033203125Q47.460849609375 39.391015625 47.178134765625 39.391015625Q46.964267578125 39.391015625 46.778232421875 39.2796875L46.945224609375 38.98818359375Q47.069736328125 39.0716796875 47.178134765625 39.0716796875Q47.330478515625 39.0716796875 47.389072265625 38.95595703125Q47.450595703125 38.840234375 47.450595703125 38.55166015625V37.08828125Z M48.676669921875 37.08828125V39.35H48.335361328125V37.08828125Z M49.844150390625 37.40908203125V39.35H49.502841796875V37.40908203125H48.982822265625V37.08828125H50.362705078125V37.40908203125Z M51.291416015625 37.40908203125V39.35H50.950107421875V37.40908203125H50.430087890625V37.08828125H51.809970703125V37.40908203125Z M53.362705078125 37.40908203125H52.455966796875V37.9525390625H53.336337890625V38.27333984375H52.455966796875V39.02919921875H53.362705078125V39.35H52.114658203125V37.08828125H53.362705078125Z M54.577060546875 38.3861328125 55.277255859375 39.35H54.859775390625L54.213779296875 38.42421875H54.152255859375V39.35H53.810947265625V37.08828125H54.210849609375Q54.659091796875 37.08828125 54.858310546875 37.25673828125Q55.078037109375 37.44423828125 55.078037109375 37.75185546875Q55.078037109375 37.99208984375 54.940341796875 38.16494140625Q54.802646484375 38.33779296875 54.577060546875 38.3861328125ZM54.152255859375 38.12685546875H54.260654296875Q54.745517578125 38.12685546875 54.745517578125 37.75625Q54.745517578125 37.40908203125 54.273837890625 37.40908203125H54.152255859375Z"/>
    <path fill="#ffffff" d="M9.7225 65.40908203125V67.35H9.38119140625V65.40908203125H8.861171875V65.08828125H10.2410546875V65.40908203125Z M11.31185546875 66.3861328125 12.01205078125 67.35H11.5945703125L10.94857421875 66.42421875H10.88705078125V67.35H10.5457421875V65.08828125H10.94564453125Q11.39388671875 65.08828125 11.59310546875 65.25673828125Q11.81283203125 65.44423828125 11.81283203125 65.75185546875Q11.81283203125 65.99208984375 11.67513671875 66.16494140625Q11.53744140625 66.33779296875 11.31185546875 66.3861328125ZM10.88705078125 66.12685546875H10.99544921875Q11.4803125 66.12685546875 11.4803125 65.75625Q11.4803125 65.40908203125 11.0086328125 65.40908203125H10.88705078125Z M12.693203125 65.08828125V67.35H12.35189453125V65.08828125Z M14.39974609375 66.172265625H15.33431640625V66.24697265625Q15.33431640625 66.50185546875 15.2742578125 66.69814453125Q15.2156640625 66.87978515625 15.07650390625 67.03798828125Q14.7615625 67.39248046875 14.275234375 67.39248046875Q13.800625 67.39248046875 13.46224609375 67.04970703125Q13.1238671875 66.70546875 13.1238671875 66.22353515625Q13.1238671875 65.73134765625 13.46810546875 65.38857421875Q13.81234375 65.0443359375 14.30599609375 65.0443359375Q14.5711328125 65.0443359375 14.80111328125 65.152734375Q15.02083984375 65.2611328125 15.2332421875 65.504296875L14.990078125 65.73720703125Q14.7117578125 65.3666015625 14.31185546875 65.3666015625Q13.95296875 65.3666015625 13.7098046875 65.61416015625Q13.466640625 65.85732421875 13.466640625 66.22353515625Q13.466640625 66.60146484375 13.73763671875 66.84609375Q13.9910546875 67.07314453125 14.286953125 67.07314453125Q14.53890625 67.07314453125 14.73958984375 66.90322265625Q14.9402734375 66.7318359375 14.9637109375 66.49306640625H14.39974609375Z"/>
    <path fill="#ffffff" d="M27.46388671875 65.08828125V66.55166015625Q27.46388671875 66.8138671875 27.427265625 66.9427734375Q27.39064453125 67.0892578125 27.30275390625 67.19033203125Q27.1313671875 67.391015625 26.84865234375 67.391015625Q26.63478515625 67.391015625 26.44875 67.2796875L26.6157421875 66.98818359375Q26.74025390625 67.0716796875 26.84865234375 67.0716796875Q27.00099609375 67.0716796875 27.05958984375 66.95595703125Q27.12111328125 66.840234375 27.12111328125 66.55166015625V65.08828125Z M28.3471875 65.08828125V66.4505859375Q28.3471875 66.74208984375 28.44240234375 66.87685546875Q28.5844921875 67.0716796875 28.8423046875 67.0716796875Q29.10158203125 67.0716796875 29.243671875 66.87685546875Q29.33888671875 66.746484375 29.33888671875 66.4505859375V65.08828125H29.6801953125V66.5443359375Q29.6801953125 66.9017578125 29.4575390625 67.133203125Q29.20705078125 67.391015625 28.8423046875 67.391015625Q28.47755859375 67.391015625 28.22853515625 67.133203125Q28.00587890625 66.9017578125 28.00587890625 66.5443359375V65.08828125Z M30.1430859375 67.35 30.61916015625 64.918359375 31.39552734375 66.676171875 32.199726562500004 64.918359375 32.627460937500004 67.35H32.277363281250004L32.059101562500004 65.984765625L31.38966796875 67.45400390625L30.73927734375 65.98330078125L30.49611328125 67.35Z M33.447773437500004 66.43154296875V67.35H33.106464843750004V65.08828125H33.493183593750004Q33.777363281250004 65.08828125 33.922382812500004 65.12783203125Q34.068867187500004 65.1673828125 34.180195312500004 65.27724609375Q34.375019531250004 65.46767578125 34.375019531250004 65.75771484375Q34.375019531250004 66.06826171875 34.167011718750004 66.24990234375Q33.959003906250004 66.43154296875 33.605976562500004 66.43154296875ZM33.447773437500004 66.11513671875H33.575214843750004Q34.045429687500004 66.11513671875 34.045429687500004 65.7533203125Q34.045429687500004 65.40322265625 33.560566406250004 65.40322265625H33.447773437500004Z"/>
    <path fill="#ffffff" d="M46.536083984375 66.172265625H47.470654296875V66.24697265625Q47.470654296875 66.50185546875 47.410595703125 66.69814453125Q47.352001953125 66.87978515625 47.212841796875 67.03798828125Q46.897900390625 67.39248046875 46.411572265625 67.39248046875Q45.936962890625 67.39248046875 45.598583984375 67.04970703125Q45.260205078125 66.70546875 45.260205078125 66.22353515625Q45.260205078125 65.73134765625 45.604443359375 65.38857421875Q45.948681640625 65.0443359375 46.442333984375 65.0443359375Q46.707470703125 65.0443359375 46.937451171875 65.152734375Q47.157177734375 65.2611328125 47.369580078125 65.504296875L47.126416015625 65.73720703125Q46.848095703125 65.3666015625 46.448193359375 65.3666015625Q46.089306640625 65.3666015625 45.846142578125 65.61416015625Q45.602978515625 65.85732421875 45.602978515625 66.22353515625Q45.602978515625 66.60146484375 45.873974609375 66.84609375Q46.127392578125 67.07314453125 46.423291015625 67.07314453125Q46.675244140625 67.07314453125 46.875927734375 66.90322265625Q47.076611328125 66.7318359375 47.100048828125 66.49306640625H46.536083984375Z M48.665966796875 66.3861328125 49.366162109375 67.35H48.948681640625L48.302685546875 66.42421875H48.241162109375V67.35H47.899853515625V65.08828125H48.299755859375Q48.747998046875 65.08828125 48.947216796875 65.25673828125Q49.166943359375 65.44423828125 49.166943359375 65.75185546875Q49.166943359375 65.99208984375 49.029248046875 66.16494140625Q48.891552734375 66.33779296875 48.665966796875 66.3861328125ZM48.241162109375 66.12685546875H48.349560546875Q48.834423828125 66.12685546875 48.834423828125 65.75625Q48.834423828125 65.40908203125 48.362744140625 65.40908203125H48.241162109375Z M50.047314453125 65.08828125V67.35H49.706005859375V65.08828125Z M50.590771484375 67.35V65.08828125H51.065380859375Q51.406689453125 65.08828125 51.604443359375 65.1556640625Q51.816845703125 65.22158203125 51.989697265625 65.37978515625Q52.339794921875 65.69912109375 52.339794921875 66.219140625Q52.339794921875 66.740625 51.975048828125 67.062890625Q51.791943359375 67.2240234375 51.591259765625 67.28701171875Q51.403759765625 67.35 51.059521484375 67.35ZM50.932080078125 67.02919921875H51.085888671875Q51.315869140625 67.02919921875 51.468212890625 66.980859375Q51.620556640625 66.92958984375 51.743603515625 66.81826171875Q51.995556640625 66.58828125 51.995556640625 66.219140625Q51.995556640625 65.8470703125 51.746533203125 65.615625Q51.522412109375 65.40908203125 51.085888671875 65.40908203125H50.932080078125Z"/>
    <path fill="#ffffff" d="M5.59896484375 86.24999999999999V83.98828124999999H6.07357421875Q6.4148828125 83.98828124999999 6.61263671875 84.05566406249999Q6.8250390625 84.12158203124999 6.997890625 84.27978515624999Q7.34798828125 84.59912109374999 7.34798828125 85.11914062499999Q7.34798828125 85.64062499999999 6.9832421875 85.96289062499999Q6.80013671875 86.12402343749999 6.599453125 86.18701171874999Q6.411953125 86.24999999999999 6.06771484375 86.24999999999999ZM5.9402734375 85.92919921874999H6.09408203125Q6.3240625 85.92919921874999 6.47640625 85.88085937499999Q6.62875 85.82958984374999 6.751796875 85.71826171874999Q7.00375 85.48828124999999 7.00375 85.11914062499999Q7.00375 84.74707031249999 6.7547265625 84.51562499999999Q6.53060546875 84.30908203124999 6.09408203125 84.30908203124999H5.9402734375Z M8.54330078125 85.28613281249999 9.24349609375 86.24999999999999H8.826015625L8.18001953125 85.32421874999999H8.11849609375V86.24999999999999H7.7771875V83.98828124999999H8.17708984375Q8.62533203125 83.98828124999999 8.82455078125 84.15673828124999Q9.04427734375 84.34423828124999 9.04427734375 84.65185546874999Q9.04427734375 84.89208984374999 8.90658203125 85.06494140624999Q8.76888671875 85.23779296874999 8.54330078125 85.28613281249999ZM8.11849609375 85.02685546874999H8.22689453125Q8.7117578125 85.02685546874999 8.7117578125 84.65624999999999Q8.7117578125 84.30908203124999 8.240078125 84.30908203124999H8.11849609375Z M10.04037109375 85.27294921874999 9.30208984375 83.98828124999999H9.69466796875L10.2117578125 84.89208984374999L10.7303125 83.98828124999999H11.122890625L10.3816796875 85.27294921874999V86.24999999999999H10.04037109375Z M12.38412109375 83.75097656249999 12.65658203125 83.87109374999999 11.36166015625 86.86816406249999 11.09212890625 86.74658203124999Z M13.04916015625 83.98828124999999 13.63802734375 85.49999999999999 14.25326171875 83.87841796874999 14.84212890625 85.49999999999999 15.4676171875 83.98828124999999H15.83822265625L14.82748046875 86.39355468749999L14.2459375 84.79101562499999L13.6394921875 86.39501953124999L12.6785546875 83.98828124999999Z M17.36751953125 84.30908203124999H16.46078125V84.85253906249999H17.34115234375V85.17333984374999H16.46078125V85.92919921874999H17.36751953125V86.24999999999999H16.11947265625V83.98828124999999H17.36751953125Z M18.43978515625 84.30908203124999V86.24999999999999H18.0984765625V84.30908203124999H17.57845703125V83.98828124999999H18.95833984375V84.30908203124999Z"/>
    <path fill="#ffffff" d="M27.844013671875 84.10986328124999V84.51416015624999Q27.548115234375 84.26660156249999 27.231708984375 84.26660156249999Q26.883076171875 84.26660156249999 26.644306640625 84.51708984374999Q26.404072265625 84.76611328124999 26.404072265625 85.12646484374999Q26.404072265625 85.48242187499999 26.644306640625 85.72705078124999Q26.884541015625 85.97167968749999 27.233173828125 85.97167968749999Q27.413349609375 85.97167968749999 27.539326171875 85.91308593749999Q27.609638671875 85.88378906249999 27.685078125 85.83398437499999Q27.760517578125 85.78417968749999 27.844013671875 85.71386718749999V86.12548828124999Q27.551044921875 86.29101562499999 27.228779296875 86.29101562499999Q26.743916015625 86.29101562499999 26.401142578125 85.95263671874999Q26.059833984375 85.61132812499999 26.059833984375 85.12939453124999Q26.059833984375 84.69726562499999 26.345478515625 84.35888671874999Q26.697041015625 83.94433593749999 27.255146484375 83.94433593749999Q27.559833984375 83.94433593749999 27.844013671875 84.10986328124999Z M28.615986328125 83.98828124999999V85.92919921874999H29.281025390625V86.24999999999999H28.274677734375V83.98828124999999Z M30.852802734375 84.30908203124999H29.946064453125V84.85253906249999H30.826435546875V85.17333984374999H29.946064453125V85.92919921874999H30.852802734375V86.24999999999999H29.604755859375V83.98828124999999H30.852802734375Z M32.629658203125004 85.70068359374999H31.661396484375L31.409443359375 86.24999999999999H31.041767578125L32.160908203125004 83.84619140624999L33.240498046875004 86.24999999999999H32.866962890625004ZM32.490498046875004 85.37988281249999 32.155048828125004 84.61083984374999 31.803486328125 85.37988281249999Z M34.289326171875004 85.28613281249999 34.989521484375004 86.24999999999999H34.572041015625004L33.926044921875004 85.32421874999999H33.864521484375004V86.24999999999999H33.523212890625004V83.98828124999999H33.923115234375004Q34.371357421875004 83.98828124999999 34.570576171875004 84.15673828124999Q34.790302734375004 84.34423828124999 34.790302734375004 84.65185546874999Q34.790302734375004 84.89208984374999 34.652607421875004 85.06494140624999Q34.514912109375004 85.23779296874999 34.289326171875004 85.28613281249999ZM33.864521484375004 85.02685546874999H33.972919921875004Q34.457783203125004 85.02685546874999 34.457783203125004 84.65624999999999Q34.457783203125004 84.30908203124999 33.986103515625004 84.30908203124999H33.864521484375004Z"/>
    <path fill="#ffffff" d="M43.70234375 85.28613281249999 44.4025390625 86.24999999999999H43.98505859375L43.3390625 85.32421874999999H43.2775390625V86.24999999999999H42.93623046875V83.98828124999999H43.3361328125Q43.784375 83.98828124999999 43.98359375 84.15673828124999Q44.2033203125 84.34423828124999 44.2033203125 84.65185546874999Q44.2033203125 84.89208984374999 44.065625 85.06494140624999Q43.9279296875 85.23779296874999 43.70234375 85.28613281249999ZM43.2775390625 85.02685546874999H43.3859375Q43.87080078125 85.02685546874999 43.87080078125 84.65624999999999Q43.87080078125 84.30908203124999 43.39912109375 84.30908203124999H43.2775390625Z M45.9904296875 84.30908203124999H45.08369140625V84.85253906249999H45.9640625V85.17333984374999H45.08369140625V85.92919921874999H45.9904296875V86.24999999999999H44.7423828125V83.98828124999999H45.9904296875Z M48.11005859375 84.10986328124999V84.51416015624999Q47.81416015625 84.26660156249999 47.49775390625 84.26660156249999Q47.14912109375 84.26660156249999 46.9103515625 84.51708984374999Q46.6701171875 84.76611328124999 46.6701171875 85.12646484374999Q46.6701171875 85.48242187499999 46.9103515625 85.72705078124999Q47.1505859375 85.97167968749999 47.49921875 85.97167968749999Q47.67939453125 85.97167968749999 47.80537109375 85.91308593749999Q47.87568359375 85.88378906249999 47.951123046875 85.83398437499999Q48.0265625 85.78417968749999 48.11005859375 85.71386718749999V86.12548828124999Q47.81708984375 86.29101562499999 47.49482421875 86.29101562499999Q47.0099609375 86.29101562499999 46.6671875 85.95263671874999Q46.32587890625 85.61132812499999 46.32587890625 85.12939453124999Q46.32587890625 84.69726562499999 46.6115234375 84.35888671874999Q46.9630859375 83.94433593749999 47.52119140625 83.94433593749999Q47.82587890625 83.94433593749999 48.11005859375 84.10986328124999Z M48.4279296875 85.10888671874999Q48.4279296875 84.63134765624999 48.77802734375 84.28857421874999Q49.12666015625 83.94580078124999 49.61591796875 83.94580078124999Q50.09931640625 83.94580078124999 50.44501953125 84.29150390624999Q50.7921875 84.63720703124999 50.7921875 85.12207031249999Q50.7921875 85.60986328124999 50.4435546875 85.94970703124999Q50.09345703125 86.29101562499999 49.59833984375 86.29101562499999Q49.1603515625 86.29101562499999 48.81171875 85.98779296874999Q48.4279296875 85.65234374999999 48.4279296875 85.10888671874999ZM48.77216796875 85.11328124999999Q48.77216796875 85.48828124999999 49.02412109375 85.72998046874999Q49.274609375 85.97167968749999 49.602734375 85.97167968749999Q49.95869140625 85.97167968749999 50.2033203125 85.72558593749999Q50.44794921875 85.47656249999999 50.44794921875 85.11914062499999Q50.44794921875 84.75732421874999 50.20625 84.51269531249999Q49.966015625 84.26660156249999 49.6115234375 84.26660156249999Q49.25849609375 84.26660156249999 49.01533203125 84.51269531249999Q48.77216796875 84.75585937499999 48.77216796875 85.11328124999999Z M51.9875 85.28613281249999 52.6876953125 86.24999999999999H52.27021484375L51.62421875 85.32421874999999H51.5626953125V86.24999999999999H51.22138671875V83.98828124999999H51.6212890625Q52.06953125 83.98828124999999 52.26875 84.15673828124999Q52.4884765625 84.34423828124999 52.4884765625 84.65185546874999Q52.4884765625 84.89208984374999 52.35078125 85.06494140624999Q52.2130859375 85.23779296874999 51.9875 85.28613281249999ZM51.5626953125 85.02685546874999H51.67109375Q52.15595703125 85.02685546874999 52.15595703125 84.65624999999999Q52.15595703125 84.30908203124999 51.68427734375 84.30908203124999H51.5626953125Z M53.0275390625 86.24999999999999V83.98828124999999H53.5021484375Q53.84345703125 83.98828124999999 54.0412109375 84.05566406249999Q54.25361328125 84.12158203124999 54.42646484375 84.27978515624999Q54.7765625 84.59912109374999 54.7765625 85.11914062499999Q54.7765625 85.64062499999999 54.41181640625 85.96289062499999Q54.2287109375 86.12402343749999 54.02802734375 86.18701171874999Q53.84052734375 86.24999999999999 53.4962890625 86.24999999999999ZM53.36884765625 85.92919921874999H53.52265625Q53.75263671875 85.92919921874999 53.90498046875 85.88085937499999Q54.05732421875 85.82958984374999 54.18037109375 85.71826171874999Q54.43232421875 85.48828124999999 54.43232421875 85.11914062499999Q54.43232421875 84.74707031249999 54.18330078125 84.51562499999999Q53.9591796875 84.30908203124999 53.52265625 84.30908203124999H53.36884765625Z"/>
    <path fill="#ffffff" d="M11.103564453125 122.28828124999998V124.54999999999998H10.762255859375V122.28828124999998Z M11.647021484375 124.54999999999998V122.13447265624998L13.296435546875 123.86005859374998V122.28828124999998H13.637744140625V124.68769531249998L11.988330078125 122.96650390624998V124.54999999999998Z"/>
    <path fill="#ffffff" d="M23.448017578125 123.40888671874998Q23.448017578125 122.93134765624998 23.798115234375 122.58857421874998Q24.146748046875 122.24580078124998 24.636005859375 122.24580078124998Q25.119404296875 122.24580078124998 25.465107421875 122.59150390624998Q25.812275390625 122.93720703124998 25.812275390625 123.42207031249998Q25.812275390625 123.90986328124998 25.463642578125 124.24970703124998Q25.113544921875 124.59101562499998 24.618427734375 124.59101562499998Q24.180439453125 124.59101562499998 23.831806640625 124.28779296874998Q23.448017578125 123.95234374999998 23.448017578125 123.40888671874998ZM23.792255859375 123.41328124999998Q23.792255859375 123.78828124999998 24.044208984375 124.02998046874998Q24.294697265625 124.27167968749998 24.622822265625 124.27167968749998Q24.978779296875 124.27167968749998 25.223408203125 124.02558593749998Q25.468037109375 123.77656249999998 25.468037109375 123.41914062499998Q25.468037109375 123.05732421874998 25.226337890625 122.81269531249998Q24.986103515625 122.56660156249998 24.631611328125 122.56660156249998Q24.278583984375 122.56660156249998 24.035419921875 122.81269531249998Q23.792255859375 123.05585937499998 23.792255859375 123.41328124999998Z M26.355732421875 122.28828124999998 26.981220703125 123.85566406249998 27.615498046875 122.28828124999998H27.989033203125L26.973896484375 124.71992187499998L25.982197265625 122.28828124999998Z M29.518330078125 122.60908203124998H28.611591796875V123.15253906249998H29.491962890625V123.47333984374998H28.611591796875V124.22919921874998H29.518330078125V124.54999999999998H28.270283203125V122.28828124999998H29.518330078125Z M30.732685546875 123.58613281249998 31.432880859375 124.54999999999998H31.015400390625L30.369404296875 123.62421874999998H30.307880859375V124.54999999999998H29.966572265625V122.28828124999998H30.366474609375Q30.814716796875 122.28828124999998 31.013935546875 122.45673828124998Q31.233662109375 122.64423828124998 31.233662109375 122.95185546874998Q31.233662109375 123.19208984374998 31.095966796875 123.36494140624998Q30.958271484375 123.53779296874998 30.732685546875 123.58613281249998ZM30.307880859375 123.32685546874998H30.416279296875Q30.901142578125 123.32685546874998 30.901142578125 122.95624999999998Q30.901142578125 122.60908203124998 30.429462890625 122.60908203124998H30.307880859375Z M31.772724609375 124.54999999999998V122.28828124999998H32.247333984375004Q32.588642578125004 122.28828124999998 32.786396484375004 122.35566406249998Q32.998798828125004 122.42158203124998 33.171650390625004 122.57978515624998Q33.521748046875004 122.89912109374998 33.521748046875004 123.41914062499998Q33.521748046875004 123.94062499999998 33.157001953125004 124.26289062499998Q32.973896484375004 124.42402343749998 32.773212890625004 124.48701171874998Q32.585712890625004 124.54999999999998 32.241474609375004 124.54999999999998ZM32.114033203125004 124.22919921874998H32.267841796875004Q32.497822265625004 124.22919921874998 32.650166015625004 124.18085937499998Q32.802509765625004 124.12958984374998 32.925556640625004 124.01826171874998Q33.177509765625004 123.78828124999998 33.177509765625004 123.41914062499998Q33.177509765625004 123.04707031249998 32.928486328125004 122.81562499999998Q32.704365234375004 122.60908203124998 32.267841796875004 122.60908203124998H32.114033203125004Z M34.292255859375004 122.28828124999998V123.65058593749998Q34.292255859375004 123.94208984374998 34.387470703125004 124.07685546874998Q34.529560546875004 124.27167968749998 34.787373046875004 124.27167968749998Q35.046650390625004 124.27167968749998 35.188740234375004 124.07685546874998Q35.283955078125004 123.94648437499998 35.283955078125004 123.65058593749998V122.28828124999998H35.625263671875004V123.74433593749998Q35.625263671875004 124.10175781249998 35.402607421875004 124.33320312499998Q35.152119140625004 124.59101562499998 34.787373046875004 124.59101562499998Q34.422626953125004 124.59101562499998 34.173603515625004 124.33320312499998Q33.950947265625004 124.10175781249998 33.950947265625004 123.74433593749998V122.28828124999998Z M36.167255859375004 124.54999999999998V122.28828124999998H36.507099609375004Q36.734150390625004 122.28828124999998 36.868916015625004 122.32343749999998Q37.005146484375004 122.35859374999998 37.098896484375004 122.44208984374998Q37.194111328125004 122.52851562499998 37.249775390625004 122.65742187499998Q37.306904296875004 122.78779296874998 37.306904296875004 122.92109374999998Q37.306904296875004 123.16425781249998 37.120869140625004 123.33271484374998Q37.301044921875004 123.39423828124998 37.405048828125004 123.54804687499998Q37.510517578125004 123.70039062499998 37.510517578125004 123.90253906249998Q37.510517578125004 124.16767578124998 37.323017578125004 124.35078124999998Q37.210224609375004 124.46357421874998 37.069599609375004 124.50751953124998Q36.915791015625004 124.54999999999998 36.684345703125004 124.54999999999998ZM36.508564453125004 123.25947265624998H36.615498046875004Q36.805927734375004 123.25947265624998 36.894550781250004 123.17524414062498Q36.983173828125004 123.09101562499998 36.983173828125004 122.92695312499998Q36.983173828125004 122.76728515624998 36.892353515625004 122.68452148437498Q36.801533203125004 122.60175781249998 36.628681640625004 122.60175781249998H36.508564453125004ZM36.508564453125004 124.22919921874998H36.719501953125004Q36.950947265625004 124.22919921874998 37.059345703125004 124.13837890624998Q37.173603515625004 124.04023437499998 37.173603515625004 123.88935546874998Q37.173603515625004 123.74287109374998 37.063740234375004 123.64326171874998Q36.956806640625004 123.54511718749998 36.681416015625004 123.54511718749998H36.508564453125004Z"/>
    <path fill="#ffffff" d="M45.746083984375005 123.40888671874998Q45.746083984375005 122.93134765624998 46.096181640625005 122.58857421874998Q46.444814453125005 122.24580078124998 46.934072265625005 122.24580078124998Q47.417470703125005 122.24580078124998 47.763173828125005 122.59150390624998Q48.110341796875005 122.93720703124998 48.110341796875005 123.42207031249998Q48.110341796875005 123.90986328124998 47.761708984375005 124.24970703124998Q47.411611328125005 124.59101562499998 46.916494140625005 124.59101562499998Q46.478505859375005 124.59101562499998 46.129873046875005 124.28779296874998Q45.746083984375005 123.95234374999998 45.746083984375005 123.40888671874998ZM46.090322265625005 123.41328124999998Q46.090322265625005 123.78828124999998 46.342275390625005 124.02998046874998Q46.592763671875005 124.27167968749998 46.920888671875005 124.27167968749998Q47.276845703125005 124.27167968749998 47.521474609375005 124.02558593749998Q47.766103515625005 123.77656249999998 47.766103515625005 123.41914062499998Q47.766103515625005 123.05732421874998 47.524404296875005 122.81269531249998Q47.284169921875005 122.56660156249998 46.929677734375005 122.56660156249998Q46.576650390625005 122.56660156249998 46.333486328125005 122.81269531249998Q46.090322265625005 123.05585937499998 46.090322265625005 123.41328124999998Z M48.880849609375005 122.28828124999998V123.65058593749998Q48.880849609375005 123.94208984374998 48.976064453125005 124.07685546874998Q49.118154296875005 124.27167968749998 49.375966796875005 124.27167968749998Q49.635244140625005 124.27167968749998 49.777333984375005 124.07685546874998Q49.872548828125005 123.94648437499998 49.872548828125005 123.65058593749998V122.28828124999998H50.213857421875005V123.74433593749998Q50.213857421875005 124.10175781249998 49.991201171875005 124.33320312499998Q49.740712890625005 124.59101562499998 49.375966796875005 124.59101562499998Q49.011220703125005 124.59101562499998 48.762197265625005 124.33320312499998Q48.539541015625005 124.10175781249998 48.539541015625005 123.74433593749998V122.28828124999998Z M51.379873046875005 122.60908203124998V124.54999999999998H51.038564453125005V122.60908203124998H50.518544921875005V122.28828124999998H51.898427734375005V122.60908203124998Z"/>
  </g>
  <g inkscape:label="values" inkscape:groupmode="layer" id="values">
    <path fill="#a8a8a8" d="M46.43409038162619 78.31926010216087 46.58086772537619 78.16984603966087 46.69864116287619 78.28674057091087 46.55362163162619 78.43527572716086Q46.71446147537619 78.63566635216087 46.71446147537619 78.88439682091087Q46.71446147537619 79.17267807091086 46.506160694126194 79.37834213341085Q46.29785991287619 79.58400619591086 46.00606303787619 79.58400619591086Q45.76260600662619 79.58400619591086 45.55694194412619 79.42843978966086L45.41104350662619 79.57345932091086L45.29854350662619 79.45832260216086L45.44004741287619 79.31242416466087Q45.29766460037619 79.12258041466086 45.29766460037619 78.88615463341087Q45.29766460037619 78.58205307091086 45.51299663162619 78.37726791466086Q45.72393413162619 78.17687728966087 46.01133647537619 78.17687728966087Q46.23985210037619 78.17687728966087 46.43409038162619 78.31926010216087ZM46.29082866287619 78.45461166466086Q46.16338725662619 78.36935775841086 46.01045756912619 78.36935775841086Q45.79336772537619 78.36935775841086 45.64834819412619 78.51789291466086Q45.50420756912619 78.66730697716086 45.50420756912619 78.88879135216087Q45.50420756912619 79.03381088341087 45.58946147537619 79.17179916466087ZM46.40860210037619 78.56974838341087 45.70284038162619 79.28957260216086Q45.85137553787619 79.39240463341086 46.00869975662619 79.39240463341086Q46.21612163162619 79.39240463341086 46.36202006912619 79.24386947716087Q46.50791850662619 79.09533432091087 46.50791850662619 78.88176010216087Q46.50791850662619 78.71388900841086 46.40860210037619 78.56974838341087Z"/>
    <path fill="#a8a8a8" d="M44.082563826400815 74.42457044388543H44.22670445140081V74.61089856888542H44.082563826400815V74.80337903763542H43.87777867015082V74.61089856888542H43.21156773265081L44.082563826400815 73.34527356888542ZM43.87777867015082 74.42457044388543V73.97017591263543L43.564888045150816 74.42457044388543Z"/>
    <path fill="#a8a8a8" d="M45.88676967964228 69.48118531700247Q45.73735561714228 69.37571656700247 45.73735561714228 69.19378297325247Q45.73735561714228 69.02854859825247 45.850734523392276 68.91780641075246Q45.964992335892276 68.80706422325247 46.13462124214227 68.80706422325247Q46.303371242142276 68.80706422325247 46.41587124214227 68.91780641075246Q46.52837124214228 69.02766969200246 46.52837124214228 69.19466187950246Q46.52837124214228 69.36956422325247 46.37983608589228 69.48030641075246Q46.461574367142276 69.52425172325246 46.50815639839227 69.60862672325247Q46.55561733589228 69.69300172325246 46.55561733589228 69.79847047325246Q46.55561733589228 69.97864625450246 46.43784389839227 70.09378297325247Q46.320070460892275 70.20891969200247 46.136379054642276 70.20891969200247Q45.94829311714228 70.20891969200247 45.82612514839228 70.09290406700246Q45.70307827339228 69.97688844200246 45.70307827339228 69.80110719200246Q45.70307827339228 69.57259156700246 45.88676967964228 69.48118531700247ZM45.929836085892276 69.19290406700247Q45.929836085892276 69.27991578575246 45.98872280464228 69.33880250450247Q46.048488429642276 69.39856812950246 46.13286342964228 69.39856812950246Q46.21635952339228 69.39856812950246 46.27612514839228 69.33880250450247Q46.33589077339228 69.27903687950247 46.33589077339228 69.19554078575247Q46.33589077339228 69.11204469200247 46.27612514839228 69.05227906700247Q46.21635952339228 68.99251344200246 46.13286342964228 68.99251344200246Q46.04936733589228 68.99251344200246 45.98960171089227 69.05227906700247Q45.929836085892276 69.11204469200247 45.929836085892276 69.19290406700247ZM45.90434780464228 69.79407594200246Q45.90434780464228 69.88811891075247 45.969386867142276 69.95579469200247Q46.035304835892276 70.02259156700246 46.12934780464228 70.02259156700246Q46.22251186714227 70.02259156700246 46.28842983589227 69.95667359825246Q46.35434780464227 69.88987672325247 46.35434780464227 69.79671266075246Q46.35434780464227 69.70266969200247 46.28842983589227 69.63675172325247Q46.22251186714227 69.57083375450247 46.12934780464228 69.57083375450247Q46.03706264839228 69.57083375450247 45.97026577339228 69.63675172325247Q45.90434780464228 69.70266969200247 45.90434780464228 69.79407594200246Z"/>
    <path fill="#a8a8a8" d="M50.98536856396591 68.78157611793056H50.75070059521591L50.863200595215915 68.58997455543054H51.19015372021591V69.94700580543055H50.98536856396591Z M52.31515372021591 68.54251361793055 52.46544668896591 68.65501361793055 52.14113028271591 69.09622455543055Q52.16749747021591 69.09270893043055 52.185954501465915 69.09095111793056Q52.20441153271591 69.08919330543056 52.21495840771591 69.08919330543056Q52.38019278271591 69.08919330543056 52.50060293896591 69.21575580543055Q52.62013418896591 69.34056049293055 52.62013418896591 69.51634174293055Q52.62013418896591 69.70266986793055 52.48654043896591 69.83626361793056Q52.35382559521591 69.96897846168055 52.16749747021591 69.96897846168055Q51.98292715771591 69.96897846168055 51.84405997021591 69.83802143043054Q51.70782950146591 69.70706439918055 51.70782950146591 69.52776752418055Q51.70782950146591 69.36692768043055 51.84054434521591 69.18675189918055ZM52.42062247021591 69.52952533668055Q52.42062247021591 69.42141986793055 52.34591543896591 69.34671283668055Q52.27032950146591 69.27112689918054 52.163981845215915 69.27112689918054Q52.05675528271591 69.27112689918054 51.98204825146591 69.34583393043054Q51.90734122021591 69.42054096168054 51.90734122021591 69.52688861793055Q51.90734122021591 69.63323627418055 51.98204825146591 69.70794330543055Q52.05675528271591 69.78265033668055 52.16486075146591 69.78265033668055Q52.27032950146591 69.78265033668055 52.34503653271591 69.70794330543055Q52.42062247021591 69.63235736793055 52.42062247021591 69.52952533668055Z"/>
    <path fill="#a8a8a8" d="M53.75999236986048 74.16971323515219V73.9948108914022Q53.890070494860474 73.9948108914022 53.934894713610475 73.96580698515218Q54.01487518236048 73.91483042265219 54.01487518236048 73.80233042265219Q54.01487518236048 73.71531870390218 53.956867369860475 73.6608265164022Q53.899738463610475 73.60545542265218 53.80833221361048 73.60545542265218Q53.723078307360474 73.60545542265218 53.67649627611048 73.64676401640219Q53.631672057360475 73.68895151640218 53.609699401110475 73.78914682890219H53.40579315111048Q53.437433776110474 73.5975452664022 53.53587127611048 73.50833628202719Q53.63430877611048 73.4191272976522 53.810968932360474 73.4191272976522Q53.98938690111048 73.4191272976522 54.101886901110475 73.5245960476522Q54.21438690111048 73.62918589140219 54.21438690111048 73.79442026640218Q54.21438690111048 73.98074839140219 54.066730651110475 74.08445932890218Q54.23548065111048 74.1837757351522 54.23548065111048 74.40701792265219Q54.23548065111048 74.58983042265218 54.11243377611048 74.70584604765219Q53.98938690111048 74.82186167265219 53.79690643236048 74.82186167265219Q53.551691588610474 74.82186167265219 53.433039244860474 74.64168589140219Q53.38382049486048 74.5660999539022 53.37063690111048 74.4325062039022H53.56839080736048Q53.58421111986048 74.5309437039022 53.64529510423547 74.5832386257772Q53.706379088610475 74.63553354765219 53.80481658861048 74.63553354765219Q53.904132994860475 74.63553354765219 53.969172057360474 74.56961557890219Q54.03421111986048 74.50193979765218 54.03421111986048 74.39822886015219Q54.03421111986048 74.2611194851522 53.93665252611048 74.20311167265218Q53.87952361986048 74.16971323515219 53.75999236986048 74.16971323515219Z M54.85598846361047 74.60740854765218H55.36135955736047V74.79988901640219H54.44993377611048L54.92102752611048 74.22947886015218Q54.99046111986048 74.1442249539022 55.03748260423548 74.08182261015219Q55.08450408861047 74.0194202664022 55.10911346361048 73.9772327664022Q55.15921111986047 73.89461557890219 55.15921111986047 73.82869761015219Q55.15921111986047 73.7337757351522 55.09241424486048 73.66961557890218Q55.02561736986048 73.60545542265218 54.927179869860474 73.60545542265218Q54.721515807360475 73.60545542265218 54.69163299486048 73.84891245390219H54.487726744860474Q54.536945494860475 73.42000620390219 54.92102752611048 73.42000620390219Q55.10647674486047 73.42000620390219 55.23216033861048 73.5377796414022Q55.358722838610475 73.65555307890219 55.358722838610475 73.82957651640218Q55.358722838610475 73.9403187039022 55.29983611986047 74.04666636015219Q55.269953307360474 74.10203745390218 55.21238494798547 74.17806284452719Q55.15481658861047 74.2540882351522 55.06692596361047 74.3577991726522Z"/>
    <path fill="#a8a8a8" d="M51.26935082572632 78.28968813156213 51.41964379447632 78.40218813156213 51.09532738822632 78.84339906906213Q51.12169457572632 78.83988344406212 51.14015160697632 78.83812563156212Q51.15860863822632 78.83636781906213 51.16915551322632 78.83636781906213Q51.33438988822632 78.83636781906213 51.45480004447632 78.96293031906212Q51.57433129447632 79.08773500656213 51.57433129447632 79.26351625656213Q51.57433129447632 79.44984438156213 51.44073754447632 79.58343813156213Q51.30802270072632 79.71615297531213 51.12169457572632 79.71615297531213Q50.93712426322632 79.71615297531213 50.79825707572632 79.58519594406212Q50.66202660697632 79.45423891281213 50.66202660697632 79.27494203781212Q50.66202660697632 79.11410219406213 50.79474145072632 78.93392641281213ZM51.37481957572632 79.27669985031213Q51.37481957572632 79.16859438156213 51.30011254447632 79.09388735031213Q51.22452660697632 79.01830141281212 51.118178950726325 79.01830141281212Q51.01095238822632 79.01830141281212 50.93624535697632 79.09300844406212Q50.86153832572632 79.16771547531212 50.86153832572632 79.27406313156213Q50.86153832572632 79.38041078781212 50.93624535697632 79.45511781906212Q51.01095238822632 79.52982485031212 51.11905785697632 79.52982485031212Q51.22452660697632 79.52982485031212 51.29923363822632 79.45511781906212Q51.37481957572632 79.37953188156213 51.37481957572632 79.27669985031213Z M52.56134301322632 79.31537172531213H52.70548363822632V79.50169985031212H52.56134301322632V79.69418031906213H52.35655785697632V79.50169985031212H51.69034691947632L52.56134301322632 78.23607485031212ZM52.35655785697632 79.31537172531213V78.86097719406213L52.04366723197632 79.31537172531213Z"/>
  </g>
  <g inkscape:label="components" inkscape:groupmode="layer" id="components" style="display:none">
    <rect id="SCREEN#Widget" x="1.5" y="10.4" width="57.96" height="22.35" fill="#ffff00"/>
    <circle id="SIZE_PARAM#RoundBlackKnob" cx="9.870000000000001" cy="46.050000000000004" r="2" fill="#ff0000"/>
    <circle id="SIZE_CV_INPUT#PJ301MPort" cx="9.870000000000001" cy="58.00000000000001" r="2" fill="#00ff00"/>
    <circle id="POSITION_PARAM#RoundBlackKnob" cx="23.61" cy="46.050000000000004" r="2" fill="#ff0000"/>
    <circle id="POSITION_CV_INPUT#PJ301MPort" cx="23.61" cy="58.00000000000001" r="2" fill="#00ff00"/>
    <circle id="SPEED_PARAM#RoundBlackKnob" cx="37.35" cy="46.050000000000004" r="2" fill="#ff0000"/>
    <circle id="SPEED_CV_INPUT#PJ301MPort" cx="37.35" cy="58.00000000000001" r="2" fill="#00ff00"/>
    <circle id="JITTER_PARAM#RoundBlackKnob" cx="51.09" cy="46.050000000000004" r="2" fill="#ff0000"/>
    <circle id="JITTER_CV_INPUT#PJ301MPort" cx="51.09" cy="58.00000000000001" r="2" fill="#00ff00"/>
    <circle id="TRIG_INPUT#PJ301MPort" cx="12.16" cy="74.14999999999999" r="2" fill="#00ff00"/>
    <circle id="JUMP_INPUT#PJ301MPort" cx="30.48" cy="74.14999999999999" r="2" fill="#00ff00"/>
    <circle id="GRID_PARAM#RoundSmallBlackSnapKnob" cx="48.8" cy="74.14999999999999" r="2" fill="#ff0000"/>
    <circle id="DRYWET_PARAM#RoundBlackKnob" cx="12.16" cy="92.94999999999999" r="2" fill="#ff0000"/>
    <circle id="DRYWET_CV_INPUT#PJ301MPort" cx="12.16" cy="104.89999999999998" r="2" fill="#00ff00"/>
    <circle id="CLEAR_PARAM#VCVButton" cx="30.48" cy="92.94999999999999" r="2" fill="#ff0000"/>
    <circle id="CLEAR_TRIG_INPUT#PJ301MPort" cx="30.48" cy="104.89999999999998" r="2" fill="#00ff00"/>
    <circle id="RECORD_PARAM#VCVButton" cx="48.8" cy="92.94999999999999" r="2" fill="#ff0000"/>
    <circle id="RECORD_TRIG_INPUT#PJ301MPort" cx="48.8" cy="104.89999999999998" r="2" fill="#00ff00"/>
    <circle id="AUDIO_L_INPUT#PJ301MPort" cx="7.35" cy="116.04999999999998" r="2" fill="#00ff00"/>
    <circle id="AUDIO_R_INPUT#PJ301MPort" cx="17.049999999999997" cy="116.04999999999998" r="2" fill="#00ff00"/>
    <circle id="OVERDUB_PARAM#OverdubButton" cx="30.48" cy="116.04999999999998" r="2" fill="#ff0000"/>
    <circle id="OUT_L_OUTPUT#PJ301MPort" cx="43.910000000000004" cy="116.04999999999998" r="2" fill="#0000ff"/>
    <circle id="OUT_R_OUTPUT#PJ301MPort" cx="53.61000000000001" cy="116.04999999999998" r="2" fill="#0000ff"/>
  </g>
</svg>
