<?xml version="1.0" encoding="UTF-8" standalone="no"?>
<svg
   width="76.2mm"
   height="128.5mm"
   viewBox="0 0 76.2 128.5"
   version="1.1"
   id="svg5"
   sodipodi:docname="Particules.svg"
   inkscape:version="1.4.3 (0d15f75, 2025-12-25)"
   xml:space="preserve"
   xmlns:inkscape="http://www.inkscape.org/namespaces/inkscape"
   xmlns:sodipodi="http://sodipodi.sourceforge.net/DTD/sodipodi-0.dtd"
   xmlns="http://www.w3.org/2000/svg"><defs
     id="defs5" /><sodipodi:namedview
     id="namedview5"
     pagecolor="#ffffff"
     bordercolor="#000000"
     borderopacity="0.25"
     inkscape:showpageshadow="2"
     inkscape:pageopacity="0.0"
     inkscape:pagecheckerboard="0"
     inkscape:deskcolor="#d1d1d1"
     inkscape:document-units="mm"
     inkscape:zoom="2.2023184"
     inkscape:cx="115.56004"
     inkscape:cy="87.407887"
     inkscape:window-width="1512"
     inkscape:window-height="916"
     inkscape:window-x="0"
     inkscape:window-y="38"
     inkscape:window-maximized="0"
     inkscape:current-layer="layer_components"
     showgrid="true"><inkscape:grid
       id="grid1"
       units="px"
       originx="0"
       originy="0"
       spacingx="1.0583333"
       spacingy="1.0583333"
       empcolor="#0099e5"
       empopacity="0.30196078"
       color="#0099e5"
       opacity="0.14901961"
       empspacing="4"
       enabled="true"
       visible="true" /></sodipodi:namedview><g
     id="layer_panel"
     inkscape:label="panel"
     inkscape:groupmode="layer"
     style="display:inline"><rect
       id="background"
       x="0"
       y="0"
       width="76.2"
       height="128.5"
       style="fill:#3d3d3d;fill-opacity:1;stroke:none"
       sodipodi:insensitive="true" /><rect
       id="controls_zone"
       x="1.5"
       y="28"
       width="73.2"
       height="79.6"
       rx="2"
       style="fill:#cf99a5;fill-opacity:0.5;stroke:none" /></g><g
     id="layer_components"
     inkscape:label="components"
     inkscape:groupmode="layer"
     style="display:none"><!-- RoundBlackKnob: 28.35px → r=4.80mm --><circle
       id="DENSITY_PARAM"
       cx="29.6"
       cy="42.087502"
       r="4.8000002"
       style="fill:#ff0000;stroke:none" /><circle
       id="TIME_PARAM"
       cx="12.6"
       cy="42.087502"
       r="4.8000002"
       style="fill:#ff0000;stroke:none" /><circle
       id="PITCH_PARAM"
       cx="46.599998"
       cy="42.087502"
       r="4.8000002"
       style="fill:#ff0000;stroke:none" /><circle
       id="SIZE_PARAM"
       cx="63.599998"
       cy="42.087502"
       r="4.8000002"
       style="fill:#ff0000;stroke:none" /><circle
       id="SHAPE_PARAM"
       cx="12.6"
       cy="82.095833"
       r="4.8000002"
       style="fill:#ff0000;stroke:none" /><!-- RoundBlackKnob: 28.35px → r=4.80mm --><circle
       id="FEEDBACK_PARAM"
       cx="29.6"
       cy="82.095833"
       r="4.8000002"
       style="fill:#ff0000;stroke:none" /><circle
       id="DRY_WET_PARAM"
       cx="63.599998"
       cy="82.095833"
       r="4.8000002"
       style="fill:#ff0000;stroke:none" /><circle
       id="REVERB_PARAM"
       cx="46.599998"
       cy="82.095833"
       r="4.8000002"
       style="fill:#ff0000;stroke:none" /><!-- Trimpot: 17.86px → r=3.02mm --><circle
       id="SIZE_AR_PARAM"
       cx="63.599998"
       cy="62.745834"
       r="3.02"
       style="fill:#ff0000;stroke:none" /><circle
       id="PITCH_AR_PARAM"
       cx="46.599998"
       cy="62.745834"
       r="3.02"
       style="fill:#ff0000;stroke:none" /><circle
       id="TIME_AR_PARAM"
       cx="12.6"
       cy="62.745834"
       r="3.02"
       style="fill:#ff0000;stroke:none" /><circle
       id="DENSITY_AR_PARAM"
       cx="29.6"
       cy="62.745834"
       r="3.02"
       style="fill:#ff0000;stroke:none" /><circle
       id="SHAPE_AR_PARAM"
       cx="12.6"
       cy="101.69582"
       r="3.02"
       style="fill:#ff0000;stroke:none" /><circle
       id="FEEDBACK_AMT_PARAM"
       cx="29.6"
       cy="101.69582"
       r="3.02"
       style="fill:#ff0000;stroke:none" /><circle
       id="DRY_WET_AMT_PARAM"
       cx="63.599998"
       cy="101.69582"
       r="3.02"
       style="fill:#ff0000;stroke:none" /><circle
       id="REVERB_AMT_PARAM"
       cx="46.599998"
       cy="101.69582"
       r="3.02"
       style="fill:#ff0000;stroke:none" /><!-- VCVBezel (VCVLightBezel): 21.26px → r=3.60mm --><circle
       id="QUALITY_PARAM"
       cx="38.099998"
       cy="15.874999"
       r="3.5999999"
       style="fill:#ff0000;stroke:none" /><!-- VCVButton (VCVLightLatch): 18.00px → r=3.05mm --><!-- PJ301MPort inputs: 23.7px → r=4.01mm --><circle
       id="FEEDBACK_INPUT"
       cx="29.6"
       cy="92.695831"
       r="4.0100002"
       style="fill:#00ff00;stroke:none" /><circle
       id="DRY_WET_INPUT"
       cx="63.599998"
       cy="92.695831"
       r="4.0100002"
       style="fill:#00ff00;stroke:none" /><circle
       id="REVERB_INPUT"
       cx="46.599998"
       cy="92.695831"
       r="4.0100002"
       style="fill:#00ff00;stroke:none" /><circle
       id="TIME_INPUT"
       cx="12.6"
       cy="53.745834"
       r="4.0100002"
       style="fill:#00ff00;stroke:none" /><circle
       id="PITCH_INPUT"
       cx="46.599998"
       cy="53.745834"
       r="4.0100002"
       style="fill:#00ff00;stroke:none" /><circle
       id="SIZE_INPUT"
       cx="63.599998"
       cy="53.745834"
       r="4.0100002"
       style="fill:#00ff00;stroke:none" /><circle
       id="SHAPE_INPUT"
       cx="12.6"
       cy="92.695831"
       r="4.0100002"
       style="fill:#00ff00;stroke:none" /><circle
       id="DENSITY_INPUT"
       cx="29.6"
       cy="53.745834"
       r="4.0100002"
       style="fill:#00ff00;stroke:none" /><circle
       id="IN_L_INPUT"
       cx="15.25"
       cy="114.3"
       r="4.0100002"
       style="fill:#00ff00;stroke:none" /><circle
       id="IN_R_INPUT"
       cx="24.95"
       cy="114.3"
       r="4.0100002"
       style="fill:#00ff00;stroke:none" /><circle
       id="FREEZE_PARAM"
       cx="20.4"
       cy="15.874999"
       r="3.05"
       style="fill:#ff0000;stroke:none" /><circle
       id="FREEZE_INPUT"
       cx="11.9"
       cy="15.874999"
       r="4.0100002"
       style="fill:#00ff00;stroke:none" /><circle
       id="SEED_INPUT"
       cx="59.845001"
       cy="15.874999"
       r="4.0100002"
       style="fill:#00ff00;stroke:none" /><!-- PJ301MPort outputs: 23.7px → r=4.01mm --><circle
       id="OUT_R_OUTPUT"
       cx="60.95"
       cy="114.3"
       r="4.0100002"
       style="display:inline;fill:#0000ff;stroke:none" /><circle
       id="OUT_L_OUTPUT"
       cx="51.25"
       cy="114.3"
       r="4.0100002"
       style="display:inline;fill:#0000ff;stroke:none" /></g><g
     inkscape:groupmode="layer"
     id="layer1"
     inkscape:label="text"><path
       style="font-weight:500;font-size:3.175px;font-family:Futura;-inkscape-font-specification:'Futura, Medium';letter-spacing:0px;fill:#f9f9f9;stroke:#65e6e5;stroke-width:0"
       d="m 11.65474,21.896854 h -0.834058 v 0.575159 h 0.804602 v 0.339514 h -0.804602 v 1.139466 H 10.459464 V 21.55734 h 1.195276 z m 1.229383,1.034046 0.74104,1.020093 H 13.18333 l -0.68368,-0.979786 h -0.06511 v 0.979786 H 12.073322 V 21.55734 h 0.42323 q 0.474391,0 0.685231,0.178284 0.232544,0.198437 0.232544,0.523999 0,0.254248 -0.145728,0.437183 -0.145728,0.182934 -0.384473,0.234094 z m -0.449586,-0.274402 h 0.114722 q 0.513148,0 0.513148,-0.392224 0,-0.36742 -0.499195,-0.36742 h -0.128675 z m 2.871144,-0.759644 H 14.34605 v 0.575159 h 0.931726 v 0.339514 H 14.34605 v 0.799951 h 0.959631 v 0.339515 h -1.32085 V 21.55734 h 1.32085 z m 1.795239,0 h -0.959631 v 0.575159 h 0.931726 v 0.339514 h -0.931726 v 0.799951 h 0.959631 v 0.339515 H 15.78007 V 21.55734 h 1.32085 z m 0.888318,1.714624 h 1.148767 v 0.339515 h -1.742529 l 1.175122,-2.054139 H 17.587712 V 21.55734 h 1.576648 z m 2.891296,-1.714624 h -0.959631 v 0.575159 h 0.931726 v 0.339514 h -0.931726 v 0.799951 h 0.959631 v 0.339515 H 19.559685 V 21.55734 h 1.320849 z"
       id="text5"
       aria-label="FREEZE" /><path
       style="font-weight:500;font-size:3.175px;font-family:Futura;-inkscape-font-specification:'Futura, Medium';letter-spacing:0px;fill:#f9f9f9;stroke:#65e6e5;stroke-width:0"
       d="m 23.557758,33.39048 v -2.393652 h 0.502295 q 0.361218,0 0.570507,0.07131 0.224793,0.06976 0.407727,0.237195 0.37052,0.337964 0.37052,0.888318 0,0.551904 -0.386023,0.892969 -0.193786,0.170532 -0.406176,0.237195 -0.198438,0.06666 -0.562757,0.06666 z m 0.361218,-0.339514 h 0.162781 q 0.243396,0 0.404626,-0.05116 0.161231,-0.05426 0.291455,-0.172082 0.266651,-0.243396 0.266651,-0.63407 0,-0.393774 -0.26355,-0.638721 -0.237195,-0.218591 -0.699182,-0.218591 h -0.162781 z m 3.264917,-1.714624 h -0.959631 v 0.575159 h 0.931726 v 0.339514 h -0.931726 v 0.799951 h 0.959631 v 0.339514 h -1.32085 v -2.393652 h 1.32085 z m 0.47439,2.054138 v -2.556433 l 1.745629,1.826245 v -1.663464 h 0.361219 v 2.53938 l -1.74563,-1.821594 v 1.675866 z m 4.033861,-2.037085 -0.293005,0.173633 q -0.08216,-0.142627 -0.15658,-0.186035 -0.07751,-0.04961 -0.199987,-0.04961 -0.150379,0 -0.249597,0.08527 -0.09922,0.08372 -0.09922,0.21084 0,0.175183 0.260449,0.282153 l 0.238745,0.09767 q 0.291455,0.117823 0.426331,0.288355 0.134875,0.168982 0.134875,0.415478 0,0.330213 -0.220141,0.545703 -0.221692,0.217041 -0.550354,0.217041 -0.311609,0 -0.514698,-0.184484 -0.199986,-0.18449 -0.249596,-0.519354 l 0.365869,-0.08062 q 0.02481,0.21084 0.08682,0.291455 0.111621,0.15503 0.325561,0.15503 0.168982,0 0.280603,-0.113172 0.111621,-0.113171 0.111621,-0.286804 0,-0.06976 -0.02015,-0.127124 -0.0186,-0.05891 -0.06046,-0.10697 -0.04031,-0.04961 -0.10542,-0.09147 -0.06511,-0.04341 -0.155029,-0.08217 l -0.230994,-0.09612 q -0.491443,-0.207739 -0.491443,-0.607715 0,-0.269751 0.206189,-0.451135 0.206189,-0.182935 0.513147,-0.182935 0.413929,0 0.646472,0.403076 z m 0.858863,-0.356567 v 2.393652 h -0.361218 v -2.393652 z m 1.235583,0.339514 v 2.054138 h -0.361218 v -2.054138 h -0.550354 v -0.339514 h 1.460376 v 0.339514 z m 1.509986,1.020093 -0.781348,-1.359607 h 0.415479 l 0.547253,0.956531 0.548804,-0.956531 h 0.415478 l -0.784448,1.359607 v 1.034045 h -0.361218 z"
       id="text6"
       aria-label="DENSITY" /><path
       style="font-weight:500;font-size:3.175px;font-family:Futura;-inkscape-font-specification:'Futura, Medium';letter-spacing:0px;fill:#f9f9f9;stroke:#65e6e5;stroke-width:0"
       d="m 57.611804,21.915461 -0.293005,0.173632 q -0.08217,-0.142627 -0.15658,-0.186035 -0.07752,-0.04961 -0.199988,-0.04961 -0.150378,0 -0.249597,0.08527 -0.09922,0.08372 -0.09922,0.21084 0,0.175183 0.26045,0.282153 l 0.238745,0.09767 q 0.291455,0.117822 0.42633,0.288354 0.134876,0.168982 0.134876,0.415479 0,0.330212 -0.220142,0.545703 -0.221692,0.217041 -0.550354,0.217041 -0.311609,0 -0.514697,-0.184485 -0.199988,-0.184485 -0.249597,-0.519348 l 0.365869,-0.08062 q 0.02481,0.21084 0.08682,0.291456 0.111621,0.155029 0.325562,0.155029 0.168982,0 0.280603,-0.113172 0.111621,-0.113171 0.111621,-0.286804 0,-0.06976 -0.02015,-0.127124 -0.0186,-0.05891 -0.06046,-0.10697 -0.04031,-0.04961 -0.10542,-0.09147 -0.06511,-0.04341 -0.15503,-0.08217 l -0.230993,-0.09612 q -0.491443,-0.207739 -0.491443,-0.607715 0,-0.269751 0.206189,-0.451135 0.206189,-0.182935 0.513147,-0.182935 0.413928,0 0.646472,0.403077 z m 1.818494,-0.01705 h -0.959632 v 0.575159 h 0.931726 v 0.339514 h -0.931726 v 0.799951 h 0.959632 v 0.339514 h -1.32085 v -2.393652 h 1.32085 z m 1.795239,0 h -0.959632 v 0.575159 h 0.931726 v 0.339514 h -0.931726 v 0.799951 h 0.959632 v 0.339514 h -1.32085 v -2.393652 h 1.32085 z m 0.47439,2.054138 v -2.393652 h 0.502294 q 0.361219,0 0.570508,0.07131 0.224793,0.06976 0.407727,0.237194 0.37052,0.337964 0.37052,0.888318 0,0.551905 -0.386023,0.892969 -0.193786,0.170532 -0.406176,0.237195 -0.198438,0.06666 -0.562757,0.06666 z m 0.361218,-0.339514 h 0.162781 q 0.243396,0 0.404626,-0.05116 0.161231,-0.05426 0.291455,-0.172083 0.26665,-0.243396 0.26665,-0.63407 0,-0.393774 -0.263549,-0.63872 -0.237195,-0.218592 -0.699182,-0.218592 h -0.162781 z"
       id="text7"
       aria-label="SEED" /><path
       style="font-weight:500;font-size:3.175px;font-family:Futura;-inkscape-font-specification:'Futura, Medium';letter-spacing:0px;fill:#f9f9f9;stroke:#65e6e5;stroke-width:0"
       d="m 43.289374,32.411473 v 0.972034 h -0.361218 v -2.393652 h 0.409277 q 0.300757,0 0.454236,0.04186 0.155029,0.04186 0.272851,0.158129 0.206189,0.201538 0.206189,0.508496 0,0.328663 -0.220141,0.520899 -0.220142,0.192236 -0.593762,0.192236 z m 0,-0.334863 h 0.134875 q 0.497644,0 0.497644,-0.382922 0,-0.37052 -0.513147,-0.37052 h -0.119372 z m 1.714624,-1.086755 v 2.393652 H 44.64278 v -2.393652 z m 1.235583,0.339514 v 2.054138 h -0.361218 v -2.054138 h -0.550354 v -0.339514 h 1.460376 v 0.339514 z m 2.554883,-0.21084 v 0.427881 q -0.313159,-0.262 -0.648022,-0.262 -0.36897,0 -0.621668,0.2651 -0.254248,0.26355 -0.254248,0.644922 0,0.376721 0.254248,0.63562 0.254248,0.258899 0.623218,0.258899 0.190686,0 0.324011,-0.06201 0.07441,-0.03101 0.153479,-0.08372 0.08062,-0.05271 0.168982,-0.127124 v 0.435632 q -0.310058,0.175183 -0.651123,0.175183 -0.513147,0 -0.875915,-0.358118 -0.361218,-0.361218 -0.361218,-0.871264 0,-0.457337 0.302307,-0.815454 0.37207,-0.438733 0.962732,-0.438733 0.322461,0 0.623217,0.175183 z m 0.883667,0.807703 h 1.032495 v -0.936377 h 0.361218 v 2.393652 h -0.361218 v -1.117761 h -1.032495 v 1.117761 h -0.361218 v -2.393652 h 0.361218 z"
       id="text8"
       inkscape:transform-center-x="-2.5717442"
       inkscape:transform-center-y="-25.852797"
       aria-label="PITCH" /><path
       style="font-weight:500;font-size:3.175px;font-family:Futura;-inkscape-font-specification:'Futura, Medium';letter-spacing:0px;fill:#f9f9f9;stroke:#65e6e5;stroke-width:0"
       d="m 9.6296643,73.361263 -0.293005,0.173632 q -0.08217,-0.142627 -0.15658,-0.186035 -0.07751,-0.04961 -0.199987,-0.04961 -0.150379,0 -0.249598,0.08527 -0.09922,0.08372 -0.09922,0.21084 0,0.175183 0.260449,0.282153 l 0.238745,0.09767 q 0.2914549,0.117822 0.4263309,0.288353 0.134875,0.168982 0.134875,0.41548 0,0.330212 -0.220141,0.545703 -0.221692,0.217041 -0.550354,0.217041 -0.311609,0 -0.514698,-0.184485 -0.199988,-0.184485 -0.249597,-0.519348 l 0.365869,-0.08062 q 0.0248,0.210839 0.08682,0.291455 0.111621,0.155029 0.325561,0.155029 0.168982,0 0.280603,-0.113171 0.111621,-0.113172 0.111621,-0.286805 0,-0.06976 -0.02015,-0.127124 -0.0186,-0.05891 -0.06046,-0.10697 -0.04031,-0.04961 -0.10542,-0.09147 -0.06511,-0.04341 -0.155029,-0.08217 l -0.230994,-0.09612 q -0.491443,-0.207739 -0.491443,-0.607715 0,-0.269751 0.206189,-0.451135 0.206189,-0.182935 0.513147,-0.182935 0.413928,0 0.646472,0.403077 z m 0.8588627,0.579809 h 1.032495 v -0.936377 h 0.361218 v 2.393653 h -0.361218 v -1.117762 h -1.032495 v 1.117762 h -0.361219 v -2.393653 h 0.361219 z m 3.373437,0.875916 H 12.83722 l -0.26665,0.58136 h -0.389123 l 1.184423,-2.544031 1.142566,2.544031 h -0.395324 z m -0.147278,-0.339514 -0.355017,-0.813904 -0.37207,0.813904 z m 1.454175,-0.05116 v 0.972034 h -0.361218 v -2.393653 h 0.409277 q 0.300757,0 0.454236,0.04186 0.15503,0.04186 0.272852,0.15813 0.206189,0.201538 0.206189,0.508496 0,0.328662 -0.220142,0.520899 -0.220141,0.192236 -0.593762,0.192236 z m 0,-0.334863 h 0.134876 q 0.497644,0 0.497644,-0.382923 0,-0.37052 -0.513147,-0.37052 h -0.119373 z m 2.674255,-0.747242 h -0.959631 v 0.575159 h 0.931726 v 0.339514 h -0.931726 v 0.799951 h 0.959631 v 0.339515 h -1.320849 v -2.393653 h 1.320849 z"
       id="text9"
       inkscape:transform-center-x="-2.5717442"
       inkscape:transform-center-y="-25.852797"
       aria-label="SHAPE" /><path
       style="font-weight:500;font-size:3.175px;font-family:Futura;-inkscape-font-specification:'Futura, Medium';letter-spacing:0px;fill:#f9f9f9;stroke:#65e6e5;stroke-width:0"
       d="m 62.366766,31.346422 -0.293005,0.173632 q -0.08217,-0.142627 -0.15658,-0.186035 -0.07752,-0.04961 -0.199988,-0.04961 -0.150378,0 -0.249597,0.08527 -0.09922,0.08372 -0.09922,0.21084 0,0.175183 0.26045,0.282153 l 0.238745,0.09767 q 0.291455,0.117822 0.42633,0.288354 0.134876,0.168982 0.134876,0.415479 0,0.330212 -0.220142,0.545703 -0.221692,0.217041 -0.550354,0.217041 -0.311609,0 -0.514697,-0.184485 -0.199988,-0.184485 -0.249597,-0.519348 l 0.365869,-0.08062 q 0.02481,0.21084 0.08682,0.291456 0.111621,0.155029 0.325562,0.155029 0.168982,0 0.280603,-0.113172 0.111621,-0.113171 0.111621,-0.286804 0,-0.06976 -0.02015,-0.127124 -0.0186,-0.05891 -0.06046,-0.10697 -0.04031,-0.04961 -0.10542,-0.09147 -0.06511,-0.04341 -0.15503,-0.08217 l -0.230993,-0.09612 q -0.491443,-0.207739 -0.491443,-0.607715 0,-0.269751 0.206189,-0.451135 0.206189,-0.182935 0.513147,-0.182935 0.413928,0 0.646472,0.403077 z m 0.858862,-0.356568 v 2.393652 H 62.86441 v -2.393652 z m 0.989087,2.054138 h 1.148767 v 0.339514 h -1.742529 l 1.175122,-2.054138 h -0.982886 v -0.339514 h 1.576648 z m 2.891297,-1.714624 H 66.14638 v 0.575159 h 0.931727 v 0.339514 H 66.14638 v 0.799951 h 0.959632 v 0.339514 h -1.32085 v -2.393652 h 1.32085 z"
       id="text10"
       inkscape:transform-center-x="-2.5717442"
       inkscape:transform-center-y="-25.852797"
       aria-label="SIZE" /><path
       style="font-weight:500;font-size:3.175px;font-family:Futura;-inkscape-font-specification:'Futura, Medium';letter-spacing:0px;fill:#f9f9f9;stroke:#65e6e5;stroke-width:0"
       d="m 18.939606,120.51935 v 2.39365 h -0.361218 v -2.39365 z m 0.575159,2.39365 v -2.55643 l 1.74563,1.82624 v -1.66346 h 0.361218 v 2.53938 l -1.74563,-1.82159 v 1.67586 z"
       id="text_in"
       aria-label="IN" /><path
       style="font-weight:500;font-size:3.175px;font-family:Futura;-inkscape-font-specification:'Futura, Medium';letter-spacing:0px;fill:#f9f9f9;stroke:#65e6e5;stroke-width:0"
       d="m 10.365277,31.362697 v 2.054138 H 10.004059 V 31.362697 H 9.4537053 v -0.339514 h 1.4603757 v 0.339514 z m 1.232483,-0.339514 v 2.393652 h -0.361218 v -2.393652 z m 0.491443,2.393652 0.503845,-2.573486 0.821655,1.860351 0.851111,-1.860351 0.452686,2.573486 h -0.37052 l -0.230994,-1.444873 -0.708484,1.554944 -0.68833,-1.556494 -0.257348,1.446423 z m 4.457092,-2.054138 h -0.959631 v 0.575159 h 0.931726 v 0.339514 h -0.931726 v 0.799951 h 0.959631 v 0.339514 h -1.320849 v -2.393652 h 1.320849 z"
       id="text18"
       aria-label="TIME" /><path
       d="m 34.049083,24.047886 h -0.454236 l -0.187586,-0.192237 q -0.299206,0.192237 -0.666626,0.192237 -0.475939,0 -0.844909,-0.322461 -0.401526,-0.355017 -0.401526,-0.906922 0,-0.541052 0.379822,-0.90227 0.368969,-0.350366 0.871264,-0.350366 0.455786,0 0.817005,0.306958 0.434082,0.368969 0.434082,0.962732 0,0.465088 -0.342615,0.826306 z m -0.993738,-0.990637 0.347266,0.345715 q 0.229443,-0.238745 0.229443,-0.590662 0,-0.386023 -0.255798,-0.646472 -0.255799,-0.260449 -0.635621,-0.260449 -0.384472,0 -0.632519,0.260449 -0.249597,0.258899 -0.249597,0.655774 0,0.387573 0.257348,0.63407 0.268201,0.254248 0.612366,0.254248 0.234094,0 0.42323,-0.10697 l -0.562756,-0.545703 z m 1.756482,-1.446424 v 1.441773 q 0,0.308508 0.100769,0.451135 0.150378,0.206189 0.42323,0.206189 0.274402,0 0.42478,-0.206189 0.100769,-0.137976 0.100769,-0.451135 v -1.441773 h 0.361218 v 1.540991 q 0,0.378272 -0.235644,0.623218 -0.2651,0.272852 -0.651123,0.272852 -0.386023,0 -0.649573,-0.272852 -0.235644,-0.244946 -0.235644,-0.623218 v -1.540991 z m 3.288171,1.812293 h -1.024744 l -0.26665,0.58136 h -0.389123 l 1.184423,-2.544031 1.142566,2.544031 H 38.351146 Z M 37.95272,23.083604 37.597703,22.2697 l -0.37207,0.813904 z m 1.454175,-1.472779 v 2.054138 h 0.703833 v 0.339515 h -1.065051 v -2.393653 z m 1.407666,0 v 2.393653 h -0.361218 v -2.393653 z m 1.235584,0.339514 v 2.054139 h -0.361218 v -2.054139 h -0.550354 v -0.339514 h 1.460376 v 0.339514 z m 1.509985,1.020093 -0.781348,-1.359607 h 0.415479 l 0.547253,0.956531 0.548804,-0.956531 h 0.415478 l -0.784448,1.359607 v 1.034046 H 43.56013 Z"
       id="text1"
       style="font-weight:500;font-size:3.175px;font-family:Futura;-inkscape-font-specification:'Futura, Medium';letter-spacing:0px;fill:#f9f9f9;stroke:#65e6e5;stroke-width:0"
       aria-label="QUALITY" /><path
       d="m 23.363195,73.344211 h -0.834058 v 0.575159 h 0.804602 v 0.339514 h -0.804602 v 1.139465 h -0.361218 v -2.393652 h 1.195276 z m 1.739428,0 h -0.959631 v 0.575159 h 0.931726 v 0.339514 h -0.931726 v 0.799951 h 0.959631 v 0.339514 h -1.320849 v -2.393652 h 1.320849 z m 1.795241,0 h -0.959633 v 0.575159 h 0.931727 v 0.339514 h -0.931727 v 0.799951 h 0.959633 v 0.339514 h -1.320851 v -2.393652 h 1.320851 z m 0.474389,2.054138 v -2.393652 h 0.502295 q 0.361218,0 0.570508,0.07131 0.224792,0.06976 0.407727,0.237195 0.37052,0.337964 0.37052,0.888318 0,0.551904 -0.386023,0.892969 -0.193787,0.170532 -0.406177,0.237195 -0.198437,0.06666 -0.562756,0.06666 z m 0.361218,-0.339514 h 0.162781 q 0.243396,0 0.404627,-0.05116 0.16123,-0.05426 0.291455,-0.172083 0.26665,-0.243396 0.26665,-0.634069 0,-0.393774 -0.26355,-0.638721 -0.237195,-0.218592 -0.699182,-0.218592 h -0.162781 z m 1.944068,0.339514 v -2.393652 h 0.359668 q 0.240295,0 0.382922,0.03721 0.144178,0.03721 0.243396,0.125574 0.100769,0.09147 0.159681,0.227893 0.06046,0.137976 0.06046,0.279053 0,0.257348 -0.196887,0.435632 0.190686,0.06511 0.300757,0.227893 0.111621,0.16123 0.111621,0.375171 0,0.280603 -0.198438,0.474389 -0.119372,0.119373 -0.268201,0.165882 -0.16278,0.04496 -0.407727,0.04496 z m 0.361218,-1.365808 h 0.113172 q 0.201538,0 0.294555,-0.08837 0.09457,-0.08992 0.09457,-0.26355 0,-0.168982 -0.09612,-0.255798 -0.09612,-0.08837 -0.279053,-0.08837 h -0.127124 z m 0,1.026294 h 0.223242 q 0.244947,0 0.359668,-0.09612 0.120923,-0.10387 0.120923,-0.263549 0,-0.155029 -0.116272,-0.260449 -0.113171,-0.10387 -0.404626,-0.10387 h -0.182935 z m 2.886646,-0.241845 h -1.024744 l -0.266651,0.58136 h -0.389123 l 1.184424,-2.54403 1.142566,2.54403 H 33.17655 Z m -0.147278,-0.339514 -0.355017,-0.813903 -0.372071,0.813903 z m 2.750219,-1.344104 v 0.427881 q -0.313159,-0.261999 -0.648022,-0.261999 -0.36897,0 -0.621668,0.2651 -0.254247,0.26355 -0.254247,0.644922 0,0.376721 0.254247,0.63562 0.254249,0.258899 0.623218,0.258899 0.190686,0 0.324011,-0.06201 0.07442,-0.03101 0.153479,-0.08372 0.08062,-0.05271 0.168982,-0.127124 v 0.435632 q -0.310058,0.175184 -0.651123,0.175184 -0.513147,0 -0.875915,-0.358118 -0.361218,-0.361218 -0.361218,-0.871265 0,-0.457336 0.302307,-0.815454 0.37207,-0.438733 0.962732,-0.438733 0.322461,0 0.623217,0.175183 z m 0.883668,0.826306 0.931726,-0.95498 h 0.482141 l -1.082105,1.083654 1.088306,1.309997 h -0.483691 l -0.861963,-1.065051 -0.07441,0.07441 v 0.990638 h -0.361219 v -2.393653 h 0.361219 z"
       id="text3"
       style="font-weight:500;font-size:3.175px;font-family:Futura;-inkscape-font-specification:'Futura, Medium';letter-spacing:0px;fill:#f9f9f9;stroke:#65e6e5;stroke-width:0"
       aria-label="FEEDBACK" /><path
       d="m 56.983374,75.143328 v -2.39366 h 0.502295 q 0.361218,0 0.570507,0.0713 0.224794,0.0698 0.407727,0.23719 0.370521,0.33797 0.370521,0.88832 0,0.5519 -0.386023,0.89297 -0.193787,0.17053 -0.406177,0.23719 -0.198438,0.0667 -0.562757,0.0667 z m 0.361218,-0.33952 h 0.162781 q 0.243396,0 0.404626,-0.0512 0.161231,-0.0543 0.291455,-0.17208 0.266651,-0.2434 0.266651,-0.63407 0,-0.39377 -0.26355,-0.63872 -0.237195,-0.21859 -0.699182,-0.21859 h -0.162781 z m 2.754871,-0.68058 0.74104,1.0201 h -0.441834 l -0.683679,-0.97979 h -0.06511 v 0.97979 h -0.361219 v -2.39366 h 0.42323 q 0.47439,0 0.68523,0.17829 0.232544,0.19844 0.232544,0.524 0,0.25424 -0.145728,0.43718 -0.145727,0.18293 -0.384472,0.23409 z m -0.449585,-0.2744 h 0.114721 q 0.513147,0 0.513147,-0.39222 0,-0.36742 -0.499194,-0.36742 h -0.128674 z m 1.928564,0.26045 -0.781348,-1.35961 h 0.415479 l 0.547253,0.95653 0.548804,-0.95653 h 0.415478 l -0.784448,1.35961 v 1.03405 h -0.361218 z m 2.480469,-1.61075 0.288354,0.12712 -1.370459,3.1719 -0.285254,-0.12867 z m 0.703833,0.25114 0.623217,1.59991 0.651123,-1.71618 0.623218,1.71618 0.661975,-1.59991 h 0.392224 l -1.069702,2.54558 -0.615466,-1.69602 -0.641821,1.69758 -1.016992,-2.54714 z m 4.570263,0.33952 h -0.959631 v 0.57516 h 0.931726 v 0.33951 h -0.931726 v 0.79995 h 0.959631 v 0.33952 h -1.320849 v -2.39366 h 1.320849 z m 1.134815,0 v 2.05414 h -0.361217 v -2.05414 h -0.550354 v -0.33952 h 1.460375 v 0.33952 z"
       id="text4"
       style="font-weight:500;font-size:3.175px;font-family:Futura;-inkscape-font-specification:'Futura, Medium';letter-spacing:0px;fill:#f9f9f9;stroke:#65e6e5;stroke-width:0"
       aria-label="DRY/WET" /><path
       d="m 42.319665,74.234855 0.74104,1.020092 h -0.441833 l -0.68368,-0.979785 h -0.06511 v 0.979785 h -0.361218 v -2.393652 h 0.42323 q 0.474389,0 0.685229,0.178284 0.232544,0.198437 0.232544,0.523999 0,0.254248 -0.145727,0.437182 -0.145728,0.182935 -0.384473,0.234095 z M 41.87008,73.960453 h 0.114722 q 0.513147,0 0.513147,-0.392224 0,-0.36742 -0.499195,-0.36742 H 41.87008 Z m 2.871143,-0.759644 h -0.959632 v 0.575159 h 0.931726 v 0.339514 h -0.931726 v 0.799951 h 0.959632 v 0.339514 h -1.32085 v -2.393652 h 1.32085 z m 0.595312,-0.339514 0.661975,1.658813 0.671277,-1.658813 h 0.395325 l -1.074353,2.573486 -1.049549,-2.573486 z m 3.347083,0.339514 h -0.959632 v 0.575159 h 0.931726 v 0.339514 h -0.931726 v 0.799951 h 0.959632 v 0.339514 h -1.32085 v -2.393652 h 1.32085 z m 1.285192,1.034046 0.74104,1.020092 h -0.441833 l -0.68368,-0.979785 h -0.06511 v 0.979785 h -0.361218 v -2.393652 h 0.42323 q 0.47439,0 0.685229,0.178284 0.232544,0.198437 0.232544,0.523999 0,0.254248 -0.145727,0.437182 -0.145728,0.182935 -0.384473,0.234095 z m -0.449585,-0.274402 h 0.114722 q 0.513147,0 0.513147,-0.392224 0,-0.36742 -0.499194,-0.36742 h -0.128675 z m 1.550293,1.294494 v -2.393652 h 0.359668 q 0.240296,0 0.382923,0.03721 0.144177,0.03721 0.243396,0.125574 0.100769,0.09147 0.15968,0.227893 0.06046,0.137976 0.06046,0.279053 0,0.257348 -0.196887,0.435632 0.190686,0.06511 0.300757,0.227893 0.111621,0.16123 0.111621,0.375171 0,0.280603 -0.198438,0.474389 -0.119372,0.119373 -0.2682,0.165882 -0.162781,0.04496 -0.407727,0.04496 z m 0.361219,-1.365808 h 0.113171 q 0.201538,0 0.294556,-0.08837 0.09457,-0.08992 0.09457,-0.26355 0,-0.168982 -0.09612,-0.255799 -0.09612,-0.08837 -0.279052,-0.08837 h -0.127124 z m 0,1.026294 h 0.223242 q 0.244946,0 0.359668,-0.09612 0.120923,-0.10387 0.120923,-0.26355 0,-0.155029 -0.116272,-0.260449 -0.113172,-0.10387 -0.404627,-0.10387 h -0.182934 z"
       id="text11"
       style="font-weight:500;font-size:3.175px;font-family:Futura;-inkscape-font-specification:'Futura, Medium';letter-spacing:0px;fill:#f9f9f9;stroke:#65e6e5;stroke-width:0"
       aria-label="REVERB" /><path
       d="m 52.910271,121.70532 q 0,-0.50539 0.37052,-0.86816 0.368969,-0.36277 0.886767,-0.36277 0.511597,0 0.877466,0.36587 0.36742,0.36587 0.36742,0.87902 0,0.51624 -0.36897,0.87591 -0.37052,0.36122 -0.894519,0.36122 -0.463538,0 -0.832508,-0.32091 -0.406176,-0.35502 -0.406176,-0.93018 z m 0.364319,0.005 q 0,0.39688 0.26665,0.65268 0.2651,0.2558 0.612366,0.2558 0.376721,0 0.63562,-0.26045 0.258899,-0.26355 0.258899,-0.64182 0,-0.38293 -0.255799,-0.64183 -0.254248,-0.26044 -0.629419,-0.26044 -0.37362,0 -0.630969,0.26044 -0.257348,0.25735 -0.257348,0.63562 z m 2.953308,-1.19062 v 1.44177 q 0,0.30851 0.100769,0.45114 0.150378,0.20619 0.42323,0.20619 0.274402,0 0.42478,-0.20619 0.100769,-0.13798 0.100769,-0.45114 v -1.44177 h 0.361218 v 1.54099 q 0,0.37827 -0.235644,0.62322 -0.2651,0.27285 -0.651123,0.27285 -0.386023,0 -0.649573,-0.27285 -0.235645,-0.24495 -0.235645,-0.62322 v -1.54099 z m 2.6448,0.33951 v 2.05414 h -0.361219 v -2.05414 h -0.550354 v -0.33951 h 1.460376 v 0.33951 z"
       id="text_out"
       style="font-weight:500;font-size:3.175px;font-family:Futura;-inkscape-font-specification:'Futura, Medium';letter-spacing:0px;fill:#f9f9f9;stroke:#65e6e5;stroke-width:0"
       aria-label="OUT" /><path
       d="m 15.586077,8.5608159 h 0.88265 v -1.6256 h 2.006599 l 0.60325,-0.60325 v -1.6129 l -0.60325,-0.60325 h -2.889249 z m 0.88265,-2.4384 v -1.1938 h 1.727199 v 1.1938 z m 3.312581,2.4384 h 0.9271 l 0.2921,-0.762 h 1.905 l 0.2921,0.762 h 0.9525 l -1.77165,-4.445 h -0.8255 z m 1.524,-1.55575 0.6477,-1.6891 0.6477,1.6891 z m 4.119034,1.55575 h 0.88265 v -1.6637 h 1.1303 l 0.70485,1.6637 h 0.9271 l -0.73025,-1.6891 0.57785,-0.57785 v -1.5748 l -0.60325,-0.60325 h -2.88925 z m 0.88265,-2.47015 v -1.16205 h 1.7272 v 1.16205 z m 5.211232,2.47015 h 0.88265 v -3.61315 h 1.33985 v -0.83185 h -3.5687 v 0.83185 h 1.3462 z m 3.598337,0 h 0.88265 v -4.445 h -0.88265 z m 3.141136,0 h 2.39395 l 0.60325,-0.60325 v -1.1049 h -0.88265 v 0.88265 h -1.83515 v -2.794 h 1.83515 v 0.88265 h 0.88265 v -1.1049 l -0.60325,-0.60325 h -2.39395 l -0.60325,0.60325 v 3.2385 z m 5.166777,0 h 2.36855 l 0.60325,-0.60325 v -3.84175 h -0.88265 v 3.6195 h -1.80975 v -3.6195 h -0.88265 v 3.84175 z m 4.620682,0 h 3.0988 v -0.8255 h -2.21615 v -3.6195 h -0.88265 z m 4.43018,0 h 3.21945 v -0.8128 h -2.3368 v -1.0033 h 1.79705 v -0.8128 h -1.79705 v -1.0033 h 2.31775 v -0.8128 h -3.2004 z m 5.211233,0 h 2.3241 l 0.60325,-0.60325 v -1.4732 l -0.5715,-0.5715 h -2.0574 v -0.99695 h 1.7272 v 0.57785 h 0.88265 v -0.7747 l -0.60325,-0.60325 h -2.286 l -0.60325,0.60325 v 1.4351 l 0.5715,0.57785 h 2.0574 v 1.0287 h -1.7653 v -0.6096 h -0.88265 v 0.80645 z"
       id="text14"
       style="font-weight:600;font-size:6.35px;font-family:'Shuttleblock Test';-inkscape-font-specification:'Shuttleblock Test, Semi-Bold';letter-spacing:0.740833px;fill:#ffffff;stroke:#65e6e5;stroke-width:0"
       aria-label="PARTICULES" /></g><g
     inkscape:groupmode="layer"
     id="layer2"
     inkscape:label="glyphs"><g
       id="g1"
       transform="matrix(1.4483333,0,0,1.4483333,34.768082,48.024757)"><line
         x1="-0.79500002"
         y1="-0.25"
         x2="-0.79500002"
         y2="0.25"
         stroke="#ffffff"
         stroke-width="0.1"
         stroke-linecap="round"
         id="line1" /><line
         x1="-0.285"
         y1="-0.25"
         x2="-0.285"
         y2="0.25"
         stroke="#ffffff"
         stroke-width="0.1"
         stroke-linecap="round"
         id="line2" /><line
         x1="-0.145"
         y1="-0.25"
         x2="-0.145"
         y2="0.25"
         stroke="#ffffff"
         stroke-width="0.1"
         stroke-linecap="round"
         id="line3" /><line
         x1="0.48500001"
         y1="-0.25"
         x2="0.48500001"
         y2="0.25"
         stroke="#ffffff"
         stroke-width="0.1"
         stroke-linecap="round"
         id="line4" /><line
         x1="0.79500002"
         y1="-0.25"
         x2="0.79500002"
         y2="0.25"
         stroke="#ffffff"
         stroke-width="0.1"
         stroke-linecap="round"
         id="line5" /></g><g
       id="g2"
       transform="matrix(1.2480681,0,0,1.4487183,24.268935,48.024757)"><line
         x1="-0.80000001"
         y1="-0.25"
         x2="-0.80000001"
         y2="0.25"
         stroke="#ffffff"
         stroke-width="0.1"
         stroke-linecap="round"
         id="line1-7" /><line
         x1="-0.40000001"
         y1="-0.25"
         x2="-0.40000001"
         y2="0.25"
         stroke="#ffffff"
         stroke-width="0.1"
         stroke-linecap="round"
         id="line2-3" /><line
         x1="0"
         y1="-0.25"
         x2="0"
         y2="0.25"
         stroke="#ffffff"
         stroke-width="0.1"
         stroke-linecap="round"
         id="line3-7" /><line
         x1="0.40000001"
         y1="-0.25"
         x2="0.40000001"
         y2="0.25"
         stroke="#ffffff"
         stroke-width="0.1"
         stroke-linecap="round"
         id="line4-9" /><line
         x1="0.80000001"
         y1="-0.25"
         x2="0.80000001"
         y2="0.25"
         stroke="#ffffff"
         stroke-width="0.1"
         stroke-linecap="round"
         id="line5-0" /></g><line
       x1="29.239819"
       y1="34.910492"
       x2="29.960182"
       y2="34.910492"
       stroke="#ffffff"
       stroke-width="0.0848741"
       stroke-linecap="round"
       id="line1-3" /><line
       x1="59.388199"
       y1="35.149235"
       x2="59.926498"
       y2="36.082287"
       stroke="#ffffff"
       stroke-width="0.179433"
       stroke-linecap="round"
       id="line1-73" /><polygon
       points="0.676,-0.39 0.434,-0.089 0.294,-0.331 "
       fill="#ffffff"
       id="polygon1-7"
       transform="matrix(1.7943334,0,0,1.7943334,59.657347,35.615764)" /><polygon
       points="-0.676,0.39 -0.434,0.089 -0.294,0.331 "
       fill="#ffffff"
       id="polygon2-9"
       transform="matrix(1.7943334,0,0,1.7943334,59.657347,35.615764)" /><g
       id="g4"
       transform="matrix(1.25,0,0,1.25,7.8437517,77.333329)"
       style="display:inline"><line
         x1="-0.75"
         y1="0.25"
         x2="-0.75"
         y2="-0.25"
         stroke="#ffffff"
         stroke-width="0.1"
         stroke-linecap="round"
         id="line1-6" /><path
         d="m -0.75,-0.25 c 0.45,0.5 0.95,0.5 1.5,0.5"
         fill="none"
         stroke="#ffffff"
         stroke-width="0.1"
         stroke-linecap="round"
         id="path1" /></g><path
       d="m 16.431249,77.645829 c 0.4375,0 0.4375,-0.625 0.9375,-0.625 0.5,0 0.5,0.625 0.9375,0.625"
       fill="none"
       stroke="#ffffff"
       stroke-width="0.1"
       stroke-linecap="round"
       stroke-linejoin="round"
       id="path1-8" /><g
       id="g5"
       transform="matrix(1.25,0,0,1.25,17.324999,86.858336)"
       style="display:inline"><line
         x1="-0.75"
         y1="0.25"
         x2="0.75"
         y2="-0.25"
         stroke="#ffffff"
         stroke-width="0.1"
         stroke-linecap="round"
         id="line1-2" /><line
         x1="0.75"
         y1="-0.25"
         x2="0.75"
         y2="0.25"
         stroke="#ffffff"
         stroke-width="0.1"
         stroke-linecap="round"
         id="line2-9" /></g><path
       d="m 6.9250017,87.170835 v -0.625 h 1.75 v 0.625"
       fill="none"
       stroke="#ffffff"
       stroke-width="0.1"
       stroke-linecap="round"
       stroke-linejoin="round"
       id="path1-2" /><g
       id="g9"><polyline
         points="       -2.25,-0.5625       -2.175,-0.2875  -2.1125,0.2  -2.0375,0.5875       -1.95,0.3125   -1.8625,-0.0125  -1.775,-0.1875  -1.675,-0.3375       -1.625,-0.0625  -1.5375,0.35  -1.475,0.5375       -1.4,0.3375   -1.325,0.125  -1.225,0.0625       -1.125,0.1875   -1.0375,0.3875  -0.95,0.5875       -0.875,0.4875   -0.775,0.375  -0.6875,0.3375       -0.5875,0.4   -0.475,0.4875  -0.375,0.5625     "
         stroke="#ffffff"
         stroke-width="0.1"
         stroke-linecap="round"
         stroke-linejoin="round"
         fill="none"
         id="polyline1"
         transform="translate(10.996988,59.4365)" /><polygon
         points="2.25,0.5625 0.375,0.5625 2.25,-0.5625 "
         fill="#ffffff"
         id="polygon1"
         transform="translate(14.253013,59.448998)" /></g><polyline
       points="       -2.25,-0.5625       -2.175,-0.2875  -2.1125,0.2  -2.0375,0.5875       -1.95,0.3125   -1.8625,-0.0125  -1.775,-0.1875  -1.675,-0.3375       -1.625,-0.0625  -1.5375,0.35  -1.475,0.5375       -1.4,0.3375   -1.325,0.125  -1.225,0.0625       -1.125,0.1875   -1.0375,0.3875  -0.95,0.5875       -0.875,0.4875   -0.775,0.375  -0.6875,0.3375       -0.5875,0.4   -0.475,0.4875  -0.375,0.5625     "
       stroke="#ffffff"
       stroke-width="0.1"
       stroke-linecap="round"
       stroke-linejoin="round"
       fill="none"
       id="polyline8"
       transform="translate(10.996988,98.386064)" /><polygon
       points="2.25,0.5625 0.375,0.5625 2.25,-0.5625 "
       fill="#ffffff"
       id="polygon9"
       transform="translate(14.253013,98.386064)" /><g
       id="g10"
       transform="translate(33.999998)"><polyline
         points="       -2.25,-0.5625       -2.175,-0.2875  -2.1125,0.2  -2.0375,0.5875       -1.95,0.3125   -1.8625,-0.0125  -1.775,-0.1875  -1.675,-0.3375       -1.625,-0.0625  -1.5375,0.35  -1.475,0.5375       -1.4,0.3375   -1.325,0.125  -1.225,0.0625       -1.125,0.1875   -1.0375,0.3875  -0.95,0.5875       -0.875,0.4875   -0.775,0.375  -0.6875,0.3375       -0.5875,0.4   -0.475,0.4875  -0.375,0.5625     "
         stroke="#ffffff"
         stroke-width="0.1"
         stroke-linecap="round"
         stroke-linejoin="round"
         fill="none"
         id="polyline9"
         transform="translate(10.996988,59.4365)" /><polygon
         points="2.25,-0.5625 2.25,0.5625 0.375,0.5625 "
         fill="#ffffff"
         id="polygon10"
         transform="translate(14.253013,59.448998)" /></g><g
       id="g11"
       transform="translate(50.999998)"><polyline
         points="       -2.25,-0.5625       -2.175,-0.2875  -2.1125,0.2  -2.0375,0.5875       -1.95,0.3125   -1.8625,-0.0125  -1.775,-0.1875  -1.675,-0.3375       -1.625,-0.0625  -1.5375,0.35  -1.475,0.5375       -1.4,0.3375   -1.325,0.125  -1.225,0.0625       -1.125,0.1875   -1.0375,0.3875  -0.95,0.5875       -0.875,0.4875   -0.775,0.375  -0.6875,0.3375       -0.5875,0.4   -0.475,0.4875  -0.375,0.5625     "
         stroke="#ffffff"
         stroke-width="0.1"
         stroke-linecap="round"
         stroke-linejoin="round"
         fill="none"
         id="polyline10"
         transform="translate(10.996988,59.4365)" /><polygon
         points="2.25,0.5625 0.375,0.5625 2.25,-0.5625 "
         fill="#ffffff"
         id="polygon11"
         transform="translate(14.253013,59.448998)" /></g></g></svg>
